<svg width="201" height="20" viewBox="0 0 201 20" fill="none" xmlns="http://www.w3.org/2000/svg">
<g clip-path="url(#clip0_22_662)">
<path d="M7.24386 17.5256H0.173676L0.173676 2.47534H6.74964C9.90425 2.47534 11.9862 3.98029 11.9862 6.51561C11.9862 8.02169 11.017 9.23759 9.71911 9.73181C11.4496 9.97892 12.7694 11.5266 12.7694 13.2563C12.7694 15.9575 10.6252 17.5256 7.24386 17.5256ZM5.6369 5.83587H4.87441V8.64173H5.6369C6.99713 8.64173 7.69727 8.1664 7.69727 7.17532C7.69765 6.16535 6.95557 5.83587 5.6369 5.83587ZM6.40014 11.3614H4.87441V14.1665H6.40014C7.80118 14.1665 8.31694 13.63 8.31694 12.7043C8.31731 11.7929 7.63569 11.3614 6.40014 11.3614Z" fill="white" fill-opacity="0.58"/>
<path d="M26.7247 17.5256L25.9206 14.7832H21.5101L20.7072 17.5256H15.901L21.1179 2.47534H26.5603L31.7761 17.5256H26.7247ZM23.7152 7.33855L22.5816 11.1548H24.8487L23.7152 7.33855Z" fill="white" fill-opacity="0.58"/>
<path d="M42.5257 17.7712C38.3603 17.7712 35.2276 15.6288 35.2276 10.599V2.47534H40.2575V11.117C40.2575 12.7417 41.1246 13.7728 42.5257 13.7728C43.9267 13.7728 44.7938 12.7417 44.7938 11.117V2.47534H49.8244V10.599C49.8244 15.6288 46.6887 17.7712 42.5257 17.7712Z" fill="white" fill-opacity="0.58"/>
<path d="M60.1391 17.7712C57.6877 17.7712 55.5653 16.8855 54.1624 15.6681L56.1623 12.4742C57.5622 13.5892 58.7792 14.1057 60.0786 14.1057C60.8003 14.1057 61.3153 13.7929 61.3153 13.2783C61.3153 12.5577 60.7391 12.2902 58.9035 11.7318C56.1619 10.8873 54.7798 9.71181 54.7798 7.23732C54.7798 3.98032 57.3363 2.22864 60.9855 2.22864C62.9442 2.22864 64.8606 2.94956 65.871 3.75323L63.8926 7.03139C62.8618 6.29007 61.9127 5.899 60.8003 5.899C59.8519 5.899 59.5009 6.31085 59.5009 6.74234C59.5009 7.21654 59.8523 7.50634 61.8315 8.08293C64.5512 8.86506 66.0353 9.91698 66.0353 12.7413C66.0353 15.7535 63.7686 17.7712 60.1391 17.7712Z" fill="white" fill-opacity="0.58"/>
<path d="M78.0813 17.7713C73.5052 17.7713 70.2271 14.5574 70.2271 10.0644C70.2271 5.56774 73.6299 2.22913 78.1637 2.22913C80.5758 2.22913 82.1847 3.26064 83.4826 4.37489L81.0088 7.73316C80.1647 6.9087 79.3595 6.33136 78.0605 6.33136C76.3901 6.33136 75.1526 7.77585 75.1526 9.94014C75.1526 12.1048 76.3496 13.6687 78.3507 13.6687C79.4627 13.6687 80.4942 13.1756 81.3795 12.3523L83.7935 15.6297C82.3486 16.886 80.7201 17.7713 78.0813 17.7713Z" fill="white" fill-opacity="0.58"/>
<path d="M97.3884 17.5256V12.2683H93.5963V17.5256H88.5673V2.47534H93.5963V8.02207H97.3884V2.47534H102.422V17.5256H97.3884Z" fill="white" fill-opacity="0.58"/>
<path d="M130.76 17.5254V2.47522H135.586V13.6911H140.513V17.5254H130.76Z" fill="white" fill-opacity="0.58"/>
<path d="M151.368 17.7712C146.645 17.7712 143.284 14.5146 143.284 10.0216C143.284 5.5272 146.686 2.22864 151.409 2.22864C156.128 2.22864 159.49 5.48677 159.49 9.97894C159.49 14.4741 156.087 17.7712 151.368 17.7712ZM151.368 6.2281C149.532 6.2281 148.213 7.81504 148.213 9.97932C148.213 12.1432 149.573 13.7732 151.409 13.7732C153.243 13.7732 154.561 12.1867 154.561 10.022C154.561 7.8566 153.201 6.2281 151.368 6.2281Z" fill="white" fill-opacity="0.58"/>
<path d="M174.926 17.5256V10.1871L172.595 14.5572H170.306L167.914 10.1871V17.5256H163.173V2.47534H168.057L171.482 8.47813L174.654 2.47534H179.953V17.5256H174.926Z" fill="white" fill-opacity="0.58"/>
<path d="M191.787 17.5254H184.714V2.47522H191.292C194.448 2.47522 196.531 3.98017 196.531 6.51549C196.531 8.02157 195.561 9.23747 194.262 9.73168C195.993 9.97879 197.311 11.5264 197.311 13.2562C197.311 15.9574 195.169 17.5254 191.787 17.5254ZM190.179 5.83575H189.416V8.64161H190.179C191.541 8.64161 192.242 8.16628 192.242 7.1752C192.242 6.16523 191.5 5.83575 190.179 5.83575ZM190.944 11.3613H189.417V14.1664H190.944C192.345 14.1664 192.86 13.6299 192.86 12.7042C192.86 11.7928 192.179 11.3613 190.944 11.3613Z" fill="white" fill-opacity="0.58"/>
<path d="M119.021 7.55835H114.157V12.4454H119.021V7.55835Z" fill="white" fill-opacity="0.58"/>
<path d="M119.02 2.47534H114.157V7.55999H119.02V2.47534Z" fill="white" fill-opacity="0.58"/>
<path d="M119.02 12.4441H114.157V17.528H119.02V12.4441Z" fill="white" fill-opacity="0.58"/>
<path d="M114.158 7.55835H109.051V12.4446H114.158V7.55835Z" fill="white" fill-opacity="0.58"/>
<path d="M124.101 7.55835H119.019V12.4446H124.101V7.55835Z" fill="white" fill-opacity="0.58"/>
</g>
<defs>
<clipPath id="clip0_22_662">
<rect width="200.257" height="18.8921" fill="white" transform="translate(0.173645 0.553955)"/>
</clipPath>
</defs>
</svg>
