<svg width="201" height="20" viewBox="0 0 201 20" fill="none" xmlns="http://www.w3.org/2000/svg">
<g clip-path="url(#clip0_22_902)">
<path d="M7.44189 17.4365H0.371704L0.371704 2.38623H6.94767C10.1023 2.38623 12.1842 3.89118 12.1842 6.4265C12.1842 7.93258 11.215 9.14848 9.91714 9.6427C11.6477 9.8898 12.9675 11.4374 12.9675 13.1672C12.9675 15.8684 10.8232 17.4365 7.44189 17.4365ZM5.83493 5.74676H5.07244V8.55262H5.83493C7.19516 8.55262 7.8953 8.07729 7.8953 7.08621C7.89568 6.07624 7.1536 5.74676 5.83493 5.74676ZM6.59817 11.2723H5.07244V14.0774H6.59817C7.99921 14.0774 8.51497 13.5409 8.51497 12.6152C8.51534 11.7038 7.83371 11.2723 6.59817 11.2723Z" fill="white" fill-opacity="0.58"/>
<path d="M26.9228 17.4365L26.1187 14.6941H21.7082L20.9053 17.4365H16.0991L21.316 2.38623H26.7584L31.9742 17.4365H26.9228ZM23.9133 7.24944L22.7798 11.0656H25.0468L23.9133 7.24944Z" fill="white" fill-opacity="0.58"/>
<path d="M42.7237 17.682C38.5584 17.682 35.4257 15.5397 35.4257 10.5098V2.38623H40.4555V11.0279C40.4555 12.6526 41.3226 13.6837 42.7237 13.6837C44.1247 13.6837 44.9919 12.6526 44.9919 11.0279V2.38623H50.0225V10.5098C50.0225 15.5397 46.8868 17.682 42.7237 17.682Z" fill="white" fill-opacity="0.58"/>
<path d="M60.3372 17.6821C57.8857 17.6821 55.7634 16.7964 54.3605 15.579L56.3604 12.3851C57.7603 13.5001 58.9773 14.0166 60.2767 14.0166C60.9984 14.0166 61.5134 13.7038 61.5134 13.1892C61.5134 12.4686 60.9372 12.2011 59.1016 11.6426C56.36 10.7982 54.9779 9.6227 54.9779 7.14821C54.9779 3.8912 57.5344 2.13953 61.1836 2.13953C63.1423 2.13953 65.0587 2.86045 66.0691 3.66412L64.0907 6.94228C63.0599 6.20095 62.1108 5.80989 60.9984 5.80989C60.05 5.80989 59.699 6.22174 59.699 6.65323C59.699 7.12742 60.0504 7.41723 62.0295 7.99382C64.7493 8.77595 66.2334 9.82787 66.2334 12.6522C66.2334 15.6644 63.9667 17.6821 60.3372 17.6821Z" fill="white" fill-opacity="0.58"/>
<path d="M78.2794 17.6822C73.7033 17.6822 70.4252 14.4683 70.4252 9.97533C70.4252 5.47863 73.828 2.14001 78.3617 2.14001C80.7739 2.14001 82.3828 3.17152 83.6806 4.28578L81.2069 7.64405C80.3628 6.81959 79.5576 6.24225 78.2586 6.24225C76.5882 6.24225 75.3507 7.68674 75.3507 9.85102C75.3507 12.0157 76.5477 13.5796 78.5488 13.5796C79.6608 13.5796 80.6923 13.0865 81.5776 12.2632L83.9916 15.5406C82.5467 16.7969 80.9182 17.6822 78.2794 17.6822Z" fill="white" fill-opacity="0.58"/>
<path d="M97.5865 17.4365V12.1792H93.7945V17.4365H88.7654V2.38623H93.7945V7.93296H97.5865V2.38623H102.62V17.4365H97.5865Z" fill="white" fill-opacity="0.58"/>
<path d="M130.958 17.4363V2.38611H135.784V13.602H140.711V17.4363H130.958Z" fill="white" fill-opacity="0.58"/>
<path d="M151.566 17.6821C146.843 17.6821 143.482 14.4255 143.482 9.93253C143.482 5.43809 146.884 2.13953 151.607 2.13953C156.326 2.13953 159.688 5.39766 159.688 9.88983C159.688 14.385 156.285 17.6821 151.566 17.6821ZM151.566 6.13899C149.73 6.13899 148.411 7.72593 148.411 9.89021C148.411 12.0541 149.771 13.6841 151.607 13.6841C153.441 13.6841 154.759 12.0976 154.759 9.9329C154.759 7.76749 153.399 6.13899 151.566 6.13899Z" fill="white" fill-opacity="0.58"/>
<path d="M175.124 17.4365V10.098L172.793 14.4681H170.504L168.112 10.098V17.4365H163.371V2.38623H168.255L171.68 8.38901L174.852 2.38623H180.151V17.4365H175.124Z" fill="white" fill-opacity="0.58"/>
<path d="M191.985 17.4363H184.912V2.38611H191.49C194.646 2.38611 196.729 3.89105 196.729 6.42638C196.729 7.93246 195.759 9.14836 194.46 9.64257C196.191 9.88968 197.509 11.4373 197.509 13.1671C197.51 15.8683 195.367 17.4363 191.985 17.4363ZM190.377 5.74664H189.614V8.5525H190.377C191.739 8.5525 192.44 8.07717 192.44 7.08609C192.44 6.07612 191.698 5.74664 190.377 5.74664ZM191.142 11.2722H189.615V14.0773H191.142C192.544 14.0773 193.058 13.5408 193.058 12.6151C193.058 11.7037 192.377 11.2722 191.142 11.2722Z" fill="white" fill-opacity="0.58"/>
<path d="M119.219 7.46924H114.355V12.3562H119.219V7.46924Z" fill="white" fill-opacity="0.58"/>
<path d="M119.218 2.38623H114.355V7.47088H119.218V2.38623Z" fill="white" fill-opacity="0.58"/>
<path d="M119.218 12.355H114.355V17.4389H119.218V12.355Z" fill="white" fill-opacity="0.58"/>
<path d="M114.356 7.46924H109.249V12.3555H114.356V7.46924Z" fill="white" fill-opacity="0.58"/>
<path d="M124.3 7.46924H119.218V12.3555H124.3V7.46924Z" fill="white" fill-opacity="0.58"/>
</g>
<defs>
<clipPath id="clip0_22_902">
<rect width="200.257" height="18.8921" fill="white" transform="translate(0.371704 0.464844)"/>
</clipPath>
</defs>
</svg>
