<svg width="83" height="78" viewBox="0 0 83 78" fill="none" xmlns="http://www.w3.org/2000/svg">
<g clip-path="url(#clip0_22_903)">
<path d="M58.3189 33.1495C58.3189 33.6709 57.6241 34.3657 56.9295 35.4081C54.1505 38.8832 47.8982 44.9644 47.8982 60.2544C47.8982 68.0731 49.1141 71.3742 49.1141 75.0232C49.1141 76.7608 48.7667 77.6294 47.8982 77.6294C45.9879 77.6294 42.5144 69.2891 42.5144 59.3856C42.5144 38.3621 55.7136 32.6282 57.7978 32.6282C58.1452 32.6282 58.3189 32.8019 58.3189 33.1495ZM25.1469 32.6282C27.231 32.6282 40.2565 38.3621 40.2565 59.2118C40.2565 69.1158 36.9569 77.4556 34.8727 77.4556C34.0042 77.4556 33.657 76.5867 33.657 74.8492C33.657 71.2004 34.8727 67.8994 34.8727 60.0807C34.8727 44.9644 28.6204 38.7094 25.8416 35.2346C24.9731 34.1919 24.4523 33.4971 24.4523 32.9757C24.6257 32.8019 24.7994 32.6282 25.1469 32.6282Z" fill="white" fill-opacity="0.58"/>
<path d="M36.6163 36.7998C36.6163 39.5797 38.7003 41.6648 41.4793 41.6648C44.0844 41.6648 46.1683 39.5797 46.1683 36.7998C46.1683 34.0198 44.0844 31.9348 41.3056 31.9348C38.874 31.9348 36.6163 34.0198 36.6163 36.7998Z" fill="white" fill-opacity="0.58"/>
<path d="M41.5012 14.072C39.591 13.2032 37.6805 11.4657 37.6805 7.99074C37.6805 4.68903 39.2436 1.38853 41.5012 -0.00182343C43.7591 1.38853 45.3222 4.68903 45.3222 7.99074C45.3222 11.4657 43.4117 13.0293 41.5012 14.072ZM82.4887 67.7603C75.7154 63.5904 65.2949 59.2467 50.1851 57.8565C50.1851 58.0303 50.0114 59.0729 50.0114 60.2893C50.0114 60.8102 50.0114 61.5051 50.1851 61.5051C64.9473 62.374 75.3679 65.5017 82.4887 68.108C82.6625 68.108 82.8362 68.2811 82.8362 68.2811C82.8362 68.2811 83.01 68.2811 83.01 68.108C82.8362 67.934 82.6625 67.9341 82.4887 67.7603ZM49.3166 11.6396C48.101 10.597 47.2327 9.03336 47.9273 6.6004C48.622 4.3419 50.3589 2.43054 52.2693 1.90953C53.485 3.47315 54.0059 5.90552 53.3113 8.33788C52.4428 10.597 50.7063 11.2919 49.3166 11.6396ZM60.2585 20.848C59.9111 19.458 59.911 17.7206 61.8214 15.9833C63.5582 14.4191 65.9895 13.8981 67.7263 14.4191C68.0738 16.3304 67.0317 18.5894 65.2949 19.9794C63.3844 21.7167 61.6476 21.3693 60.2585 20.848ZM60.6055 34.748C61.1268 33.358 61.9952 31.968 64.4266 31.6204C66.6841 31.4467 68.9422 32.1418 70.1576 33.7055C69.2892 35.443 67.3787 36.6592 65.1211 36.833C62.6898 37.1806 61.4738 35.9644 60.6055 34.748ZM56.6112 39.7867C57.4794 38.7443 58.6951 37.7016 60.7793 38.2229C62.6898 38.5705 64.4266 39.9605 65.1211 41.5242C64.079 42.7404 61.9952 43.2617 59.9111 42.9142C57.8268 42.3928 56.9586 41.0029 56.6112 39.7867ZM44.6274 26.5816C43.2381 25.3655 42.0223 23.4542 42.8909 20.5005C43.7591 17.7206 45.8433 15.4617 48.101 14.9407C49.664 16.6782 50.1851 19.8056 49.3166 22.5855C48.4484 25.3655 46.3642 26.4079 44.6274 26.5816ZM49.8378 29.7092C49.3166 28.1454 49.4904 26.0606 51.5745 24.3231C53.485 22.5855 56.2638 21.8904 58.3479 22.5855C58.6951 24.6706 57.4794 27.2767 55.5689 28.8405C53.3113 30.578 51.4008 30.4042 49.8378 29.7092ZM53.3113 18.4156C52.4428 16.8521 51.7482 14.593 53.485 11.9867C55.0481 9.55436 57.8268 7.81687 60.2585 7.99074C61.3 10.0754 60.953 13.3771 59.2162 15.8094C57.4794 18.4156 55.2218 18.7629 53.3113 18.4156ZM60.4317 28.1454C60.4317 26.4079 61.1268 24.3231 63.732 23.1068C66.3371 22.0642 69.1154 22.238 71.026 23.4542C70.679 25.5393 68.9422 27.7981 66.3371 29.0143C63.732 30.2305 61.8214 29.3619 60.4317 28.1454ZM-0.00708008 68.108C0.166622 68.2811 0.340323 68.108 0.514024 68.108C7.63463 65.5017 18.0551 62.374 32.8176 61.5051C32.8176 61.3313 32.9913 60.6364 32.9913 60.2893C32.9913 59.2467 32.8176 58.0303 32.8176 57.8565C17.7079 59.2467 7.46089 63.5904 0.514024 67.7603C0.166621 67.9341 -0.00708008 67.934 -0.00708008 68.108ZM29.6914 8.16401C28.9966 5.90551 29.344 3.29929 30.7334 1.73566C32.6439 2.25667 34.3807 4.16803 35.0753 6.42653C35.77 8.85949 34.9018 10.4231 33.6859 11.4657C32.1228 11.2918 30.386 10.597 29.6914 8.16401ZM17.5342 20.1529C15.7974 18.5894 14.7552 16.3304 15.1026 14.593C16.8394 14.072 19.271 14.593 21.0075 16.1566C22.918 17.7206 22.918 19.458 22.5706 21.0218C21.1812 21.3693 19.4444 21.7167 17.5342 20.1529ZM17.8813 36.833C15.6237 36.6592 13.5395 35.2693 12.6713 33.7055C13.8869 32.3155 16.1448 31.4467 18.4025 31.6204C20.8341 31.7942 21.7023 33.358 22.2234 34.748C21.5286 35.9644 20.1392 37.1806 17.8813 36.833ZM23.0917 42.7404C21.1812 43.088 19.0973 42.5667 17.8813 41.3505C18.4025 39.7867 20.1392 38.5705 22.2234 38.2229C24.3074 37.7016 25.5233 38.7443 26.2179 39.7867C25.8705 41.0029 25.1759 42.3928 23.0917 42.7404ZM33.5122 22.5855C32.6439 19.8056 33.165 16.6782 34.7281 14.9407C36.9857 15.6356 39.0699 17.8943 39.9384 20.5005C40.8067 23.4542 39.591 25.3655 38.3753 26.5816C36.4648 26.4079 34.3807 25.3655 33.5122 22.5855ZM27.4335 28.8405C25.5233 27.103 24.3074 24.6706 24.6548 22.5855C26.739 21.8904 29.344 22.5855 31.4282 24.3231C33.5122 26.0606 33.5122 28.1454 33.165 29.7092C31.4282 30.4042 29.5177 30.578 27.4335 28.8405ZM23.7865 15.8094C22.2234 13.3771 21.876 10.2492 22.7443 7.99074C25.1759 7.99074 27.781 9.55436 29.5177 11.9867C31.2545 14.593 30.5597 16.6782 29.5177 18.4156C27.6072 18.7629 25.3496 18.4156 23.7865 15.8094ZM16.492 29.0143C14.0606 27.7981 12.1501 25.5393 11.8028 23.4542C13.7132 22.238 16.6657 22.0642 19.0973 23.2804C21.7023 24.4968 22.3971 26.4079 22.3971 28.3192C21.0075 29.3619 19.0973 30.2305 16.492 29.0143Z" fill="white" fill-opacity="0.58"/>
</g>
<defs>
<clipPath id="clip0_22_903">
<rect width="83.0141" height="77.6294" fill="white" transform="translate(-0.00708008)"/>
</clipPath>
</defs>
</svg>
