<svg width="193" height="75" viewBox="0 0 193 75" fill="none" xmlns="http://www.w3.org/2000/svg">
<mask id="mask0_110_249" style="mask-type:luminance" maskUnits="userSpaceOnUse" x="0" y="0" width="193" height="75">
<path d="M0.387207 74.6433H192.613V0.629966H0.387207L0.387207 74.6433Z" fill="white"/>
</mask>
<g mask="url(#mask0_110_249)">
<path d="M43.9392 40.3297C44.7008 39.2968 45.7179 38.9454 47.4139 39.3586C48.8934 39.7121 50.957 40.7756 51.4719 41.236C52.2264 41.922 52.4771 42.613 52.3481 43.6866C52.2439 44.5661 51.9996 45.2935 51.5451 46.1096C50.8782 47.3098 49.9463 48.0423 48.7183 48.0605C47.4951 48.0874 44.9261 47.8212 43.4633 47.2298C42.0061 46.6348 41.8263 45.2164 42.3221 43.6801C42.7725 42.2806 43.2747 41.2287 43.9392 40.3297Z" fill="white" fill-opacity="0.58"/>
<path d="M83.2827 29.7785C76.7807 29.7785 73.8193 34.5415 73.8193 38.9656C73.8193 43.3839 76.7807 48.1549 83.2827 48.1549C89.7872 48.1549 92.7485 43.3839 92.7485 38.9656C92.7485 34.5415 89.7872 29.7785 83.2827 29.7785ZM83.2827 47.2864C77.3935 47.2864 75.3012 42.7998 75.3012 38.9656C75.3012 35.1278 77.3935 30.6456 83.2827 30.6456C89.1752 30.6456 91.2651 35.1278 91.2651 38.9656C91.2651 42.7998 89.1752 47.2864 83.2827 47.2864Z" fill="white" fill-opacity="0.58"/>
<path d="M101.365 34.7265H99.2544V31.1724C99.2544 30.3599 98.8015 30.3599 98.6161 30.3599C98.4219 30.3599 97.973 30.3599 97.973 31.1724V34.7265H95.8593C95.5425 34.7265 95.3826 34.8451 95.3826 35.0808C95.3826 35.3157 95.5425 35.4358 95.8593 35.4358H97.973V47.3761C97.973 48.1544 98.4219 48.1544 98.6161 48.1544C98.8015 48.1544 99.2544 48.1544 99.2544 47.3761V35.4358H101.365C101.68 35.4358 101.843 35.3157 101.843 35.0808C101.843 34.8451 101.68 34.7265 101.365 34.7265Z" fill="white" fill-opacity="0.58"/>
<path d="M112.085 42.1436C111.268 41.873 108.891 41.0918 107.975 40.7899C106.028 40.1469 105.233 39.1882 105.233 37.8476C105.233 35.824 108.033 34.5685 110.624 34.5685C112.245 34.5685 113.986 34.8631 115.495 35.6537C116.211 36.0218 115.631 36.7747 114.98 36.459C113.836 35.9105 112.997 35.277 110.716 35.277C108.728 35.277 106.663 36.1156 106.663 37.713C106.663 38.6426 107.463 39.338 108.691 39.7236C109.076 39.8465 111.828 40.7368 112.298 40.8881C114.873 41.7217 116.366 42.6426 116.366 44.5019C116.366 46.687 113.976 48.1549 110.416 48.1549C107.423 48.1549 105.447 46.9409 104.603 46.1676C103.93 45.5537 104.761 44.902 105.33 45.417C105.937 45.9647 107.514 47.4457 110.517 47.4457C113.004 47.4457 114.93 46.2113 114.93 44.5819C114.93 43.0354 113.437 42.5895 112.085 42.1436Z" fill="white" fill-opacity="0.58"/>
<path d="M132.495 34.5685C132.297 34.5685 131.845 34.5685 131.845 35.3453V43.3119C131.845 44.3971 131.75 45.2918 131.217 45.9691C130.46 46.9212 128.987 47.4457 126.989 47.4457C125.018 47.4457 123.574 46.9161 122.807 45.9458C122.273 45.2722 122.116 44.3826 122.116 43.3119V35.3453C122.116 34.5685 121.671 34.5685 121.475 34.5685C121.281 34.5685 120.834 34.5685 120.834 35.3453V43.7767C120.834 46.4382 123.249 48.1549 126.989 48.1549C130.715 48.1549 133.132 46.4382 133.132 43.7767V35.3453C133.132 34.5685 132.686 34.5685 132.495 34.5685Z" fill="white" fill-opacity="0.58"/>
<path d="M148.408 47.8975C149.076 48.3536 149.338 48.0605 149.453 47.9266C149.574 47.7913 149.852 47.4742 149.198 46.997L140.839 40.8606C140.839 40.8606 149.004 35.2865 148.999 35.2894C149.439 34.9912 149.296 34.7621 149.223 34.6719C149.144 34.5824 148.948 34.3969 148.509 34.693L139.346 40.8504V29.1203C139.346 28.3427 138.894 28.3427 138.7 28.3427C138.507 28.3427 138.061 28.3427 138.061 29.1203V47.376C138.061 48.155 138.507 48.155 138.7 48.155C138.894 48.155 139.346 48.155 139.346 47.376V41.2389C139.346 41.2389 148.41 47.8975 148.408 47.8975Z" fill="white" fill-opacity="0.58"/>
<path d="M164.883 34.5685C164.691 34.5685 164.241 34.5961 164.241 35.3453L164.24 38.1255C163.553 36.3288 161.694 34.5685 158.649 34.5685C153.855 34.5685 151.672 38.0884 151.672 41.3551C151.672 44.6474 153.52 48.1549 158.715 48.1549C161.912 48.1549 163.581 46.332 164.257 44.6081V47.3759C164.257 48.1549 164.691 48.1549 164.883 48.1549C165.074 48.1549 165.527 48.1549 165.527 47.3759V35.3453C165.531 34.6048 165.074 34.5685 164.883 34.5685ZM158.715 47.4457C154.607 47.4457 153.045 44.1666 153.045 41.3551C153.045 38.3335 154.875 35.277 158.715 35.277C162.791 35.277 164.241 38.5539 164.241 41.3551C164.241 44.1666 162.791 47.4457 158.715 47.4457Z" fill="white" fill-opacity="0.58"/>
</g>
</svg>
