<svg width="23" height="23" viewBox="0 0 23 23" fill="none" xmlns="http://www.w3.org/2000/svg">
<g clip-path="url(#clip0_22_1025)">
<path d="M11.2155 4.44061C6.58276 4.44061 2.62638 7.3222 1.02344 11.3898C2.62638 15.4573 6.58276 18.3389 11.2155 18.3389C15.8529 18.3389 19.8047 15.4573 21.4076 11.3898C19.8047 7.3222 15.8529 4.44061 11.2155 4.44061ZM11.2155 16.0225C8.65825 16.0225 6.58276 13.9471 6.58276 11.3898C6.58276 8.83248 8.65825 6.757 11.2155 6.757C13.7728 6.757 15.8483 8.83248 15.8483 11.3898C15.8483 13.9471 13.7728 16.0225 11.2155 16.0225ZM11.2155 8.61011C9.68209 8.61011 8.43587 9.85632 8.43587 11.3898C8.43587 12.9232 9.68209 14.1694 11.2155 14.1694C12.749 14.1694 13.9952 12.9232 13.9952 11.3898C13.9952 9.85632 12.749 8.61011 11.2155 8.61011Z" fill="black"/>
</g>
<defs>
<clipPath id="clip0_22_1025">
<rect width="22.2373" height="22.2373" fill="white" transform="translate(0.0969238 0.271118)"/>
</clipPath>
</defs>
</svg>
