<svg width="34" height="35" viewBox="0 0 34 35" fill="none" xmlns="http://www.w3.org/2000/svg">
<path d="M13.2717 0.123035C10.6167 0.268684 7.62676 1.1048 5.6898 2.2457C4.61874 2.87683 3.52053 3.94491 2.60635 5.24764C1.19738 7.25163 0.654307 8.94544 0.648273 11.3297C0.642239 13.2744 0.977134 14.6769 2.00294 16.9938C2.31068 17.6896 2.41929 17.9243 3.14037 19.4347C4.67908 22.6497 5.26138 23.9336 5.48464 24.5863C5.72299 25.2875 5.82859 25.6678 5.7954 25.6975C5.77428 25.7164 5.78333 25.7407 5.81652 25.7703C5.84971 25.8 5.91005 25.9888 5.97944 26.2882C6.37166 27.9523 6.54363 29.5706 6.50441 31.2887C6.48027 32.3406 6.40485 33.2037 6.24494 34.2421C6.21477 34.4417 6.19365 34.6089 6.19667 34.6143C6.21175 34.6278 22.2746 34.5658 22.2897 34.5496C22.2988 34.5442 22.3229 34.2016 22.344 33.789C22.4044 32.5806 22.4345 32.4512 22.7453 32.0331C23.2974 31.2995 23.7047 31.1431 25.6598 30.9381C29.4794 30.5308 30.7134 30.1047 31.1448 29.0393C31.3802 28.4567 31.3862 27.5478 31.169 25.7541L31.1448 25.5599L31.3832 25.2552C31.6638 24.9018 31.7814 24.6834 31.8237 24.4568C31.8599 24.2626 31.8237 24.1035 31.7211 23.9821C31.6245 23.8688 31.6276 23.8284 31.7271 23.7205C31.7935 23.6504 31.8116 23.6018 31.8207 23.4589C31.8357 23.2485 31.8116 23.1325 31.6004 22.4825C31.3651 21.757 31.2836 21.3901 31.2384 20.8507C31.2172 20.581 31.2685 20.1629 31.3409 20.0119C31.4315 19.8339 31.6909 19.6828 32.231 19.4967C32.8404 19.2864 33.0878 19.1353 33.2176 18.9034C33.2779 18.7928 33.287 18.7334 33.287 18.4907C33.287 18.1724 33.2628 18.1023 33.0577 17.8326C32.8072 17.5035 32.0288 16.6836 30.8974 15.5616C29.8022 14.4719 29.4794 14.1051 29.3497 13.7976C29.2773 13.6277 29.232 12.7403 29.232 11.4835C29.229 10.2239 29.1868 9.00748 29.1264 8.61369C29.0238 7.92322 28.6195 6.81199 28.1428 5.92463C27.642 4.99141 27.1321 4.32521 26.396 3.64553C25.2103 2.55048 23.6655 1.72245 21.448 0.99152C19.9575 0.500637 18.7115 0.26329 16.9978 0.150009C16.4366 0.112247 13.8268 0.0933685 13.2717 0.123035Z" fill="url(#paint0_linear_178_6)"/>
<defs>
<linearGradient id="paint0_linear_178_6" x1="16.9676" y1="34.6162" x2="16.9676" y2="0.108448" gradientUnits="userSpaceOnUse">
<stop stop-color="#DDD3EF" stop-opacity="0.55"/>
<stop offset="0.541667" stop-color="#FDD9FF"/>
<stop offset="1" stop-color="#C1E7FF"/>
</linearGradient>
</defs>
</svg>
