<svg width="62" height="14" viewBox="0 0 62 14" fill="none" xmlns="http://www.w3.org/2000/svg">
<circle cx="5.48413" cy="7.0039" r="5.1853" fill="#6BD17B"/>
<path d="M23.5312 8.48574H20.6229L20.065 10.0039H19.3882L21.7204 3.69346H22.4429L24.7658 10.0039H24.0891L23.5312 8.48574ZM23.3391 7.9553L22.077 4.49827L20.8149 7.9553H23.3391ZM27.5675 9.38201L29.2503 5.01042H29.9271L27.9242 10.0039H27.2017L25.1988 5.01042H25.8847L27.5675 9.38201ZM30.5021 7.49802C30.5021 6.98587 30.6027 6.53773 30.8039 6.15362C31.0112 5.76341 31.2947 5.46465 31.6545 5.25735C32.0203 5.04396 32.4318 4.93726 32.8891 4.93726C33.3647 4.93726 33.7732 5.04701 34.1146 5.2665C34.4621 5.48599 34.7121 5.76646 34.8646 6.10789V5.01042H35.5047V10.0039H34.8646V8.89729C34.706 9.23873 34.453 9.52224 34.1055 9.74783C33.764 9.96732 33.3555 10.0771 32.88 10.0771C32.4288 10.0771 32.0203 9.97037 31.6545 9.75698C31.2947 9.54358 31.0112 9.24178 30.8039 8.85156C30.6027 8.46135 30.5021 8.01017 30.5021 7.49802ZM34.8646 7.50716C34.8646 7.10476 34.7822 6.75113 34.6176 6.44628C34.453 6.14143 34.2274 5.90669 33.9408 5.74207C33.6604 5.57745 33.3494 5.49514 33.008 5.49514C32.6544 5.49514 32.3373 5.5744 32.0569 5.73292C31.7764 5.89145 31.5539 6.12313 31.3892 6.42799C31.2307 6.72674 31.1514 7.08342 31.1514 7.49802C31.1514 7.90652 31.2307 8.26625 31.3892 8.5772C31.5539 8.88205 31.7764 9.11679 32.0569 9.28141C32.3373 9.43993 32.6544 9.51919 33.008 9.51919C33.3494 9.51919 33.6604 9.43688 33.9408 9.27226C34.2274 9.10764 34.453 8.8729 34.6176 8.56805C34.7822 8.2632 34.8646 7.90957 34.8646 7.50716ZM37.2863 4.06843C37.1583 4.06843 37.0486 4.0227 36.9571 3.93125C36.8656 3.83979 36.8199 3.72699 36.8199 3.59286C36.8199 3.45872 36.8656 3.34898 36.9571 3.26362C37.0486 3.17216 37.1583 3.12643 37.2863 3.12643C37.4144 3.12643 37.5241 3.17216 37.6156 3.26362C37.707 3.34898 37.7528 3.45872 37.7528 3.59286C37.7528 3.72699 37.707 3.83979 37.6156 3.93125C37.5241 4.0227 37.4144 4.06843 37.2863 4.06843ZM37.6064 5.01042V10.0039H36.9662V5.01042H37.6064ZM39.6963 3.23618V10.0039H39.0562V3.23618H39.6963ZM40.8534 7.49802C40.8534 6.98587 40.954 6.53773 41.1552 6.15362C41.3625 5.76341 41.646 5.46465 42.0057 5.25735C42.3716 5.04396 42.7831 4.93726 43.2404 4.93726C43.716 4.93726 44.1245 5.04701 44.4659 5.2665C44.8134 5.48599 45.0634 5.76646 45.2158 6.10789V5.01042H45.856V10.0039H45.2158V8.89729C45.0573 9.23873 44.8043 9.52224 44.4568 9.74783C44.1153 9.96732 43.7068 10.0771 43.2313 10.0771C42.7801 10.0771 42.3716 9.97037 42.0057 9.75698C41.646 9.54358 41.3625 9.24178 41.1552 8.85156C40.954 8.46135 40.8534 8.01017 40.8534 7.49802ZM45.2158 7.50716C45.2158 7.10476 45.1335 6.75113 44.9689 6.44628C44.8043 6.14143 44.5787 5.90669 44.2921 5.74207C44.0117 5.57745 43.7007 5.49514 43.3593 5.49514C43.0057 5.49514 42.6886 5.5744 42.4081 5.73292C42.1277 5.89145 41.9051 6.12313 41.7405 6.42799C41.582 6.72674 41.5027 7.08342 41.5027 7.49802C41.5027 7.90652 41.582 8.26625 41.7405 8.5772C41.9051 8.88205 42.1277 9.11679 42.4081 9.28141C42.6886 9.43993 43.0057 9.51919 43.3593 9.51919C43.7007 9.51919 44.0117 9.43688 44.2921 9.27226C44.5787 9.10764 44.8043 8.8729 44.9689 8.56805C45.1335 8.2632 45.2158 7.90957 45.2158 7.50716ZM47.9486 6.11704C48.1132 5.76951 48.3662 5.48599 48.7077 5.2665C49.0552 5.04701 49.4637 4.93726 49.9332 4.93726C50.3904 4.93726 50.7989 5.04396 51.1587 5.25735C51.5184 5.46465 51.7989 5.76341 52.0001 6.15362C52.2074 6.53773 52.311 6.98587 52.311 7.49802C52.311 8.01017 52.2074 8.46135 52.0001 8.85156C51.7989 9.24178 51.5154 9.54358 51.1495 9.75698C50.7898 9.97037 50.3843 10.0771 49.9332 10.0771C49.4576 10.0771 49.046 9.97037 48.6985 9.75698C48.3571 9.53748 48.1071 9.25397 47.9486 8.90644V10.0039H47.3175V3.23618H47.9486V6.11704ZM51.6617 7.49802C51.6617 7.08342 51.5794 6.72674 51.4148 6.42799C51.2562 6.12313 51.0367 5.89145 50.7563 5.73292C50.4758 5.5744 50.1588 5.49514 49.8051 5.49514C49.4637 5.49514 49.1497 5.57745 48.8631 5.74207C48.5827 5.90669 48.3601 6.14143 48.1955 6.44628C48.0309 6.75113 47.9486 7.10476 47.9486 7.50716C47.9486 7.90957 48.0309 8.2632 48.1955 8.56805C48.3601 8.8729 48.5827 9.10764 48.8631 9.27226C49.1497 9.43688 49.4637 9.51919 49.8051 9.51919C50.1588 9.51919 50.4758 9.43993 50.7563 9.28141C51.0367 9.11679 51.2562 8.88205 51.4148 8.5772C51.5794 8.26625 51.6617 7.90652 51.6617 7.49802ZM54.1292 3.23618V10.0039H53.489V3.23618H54.1292ZM60.0968 7.25109C60.0968 7.47058 60.0907 7.63825 60.0785 7.7541H55.9356C55.9539 8.13211 56.0453 8.45526 56.21 8.72353C56.3746 8.9918 56.591 9.19605 56.8593 9.33628C57.1276 9.47041 57.4202 9.53748 57.7373 9.53748C58.1519 9.53748 58.4994 9.43688 58.7799 9.23568C59.0664 9.03448 59.2554 8.76316 59.3469 8.42172H60.0237C59.9017 8.90949 59.6396 9.30884 59.2371 9.61979C58.8408 9.92464 58.3409 10.0771 57.7373 10.0771C57.2678 10.0771 56.8471 9.97342 56.4752 9.76612C56.1033 9.55272 55.8106 9.25397 55.5972 8.86986C55.3899 8.47964 55.2863 8.02541 55.2863 7.50716C55.2863 6.98892 55.3899 6.53469 55.5972 6.14447C55.8045 5.75426 56.0941 5.45551 56.466 5.24821C56.838 5.04091 57.2617 4.93726 57.7373 4.93726C58.2128 4.93726 58.6274 5.04091 58.9811 5.24821C59.3408 5.45551 59.6152 5.73597 59.8042 6.0896C59.9993 6.43713 60.0968 6.82429 60.0968 7.25109ZM59.4475 7.2328C59.4536 6.86088 59.3774 6.54383 59.2189 6.28166C59.0664 6.01948 58.8561 5.82133 58.5878 5.6872C58.3195 5.55306 58.0269 5.48599 57.7098 5.48599C57.2343 5.48599 56.8288 5.63842 56.4935 5.94327C56.1581 6.24812 55.9722 6.67797 55.9356 7.2328H59.4475Z" fill="black"/>
</svg>
