<svg width="201" height="18" viewBox="0 0 201 18" fill="none" xmlns="http://www.w3.org/2000/svg">
<path d="M192.372 16.7387L193.602 16.4824C193.987 16.4095 194.097 16.3362 194.097 16.1163V12.5666L190.519 7.09558C190.336 6.82122 190.263 6.74793 190.005 6.65621L189.492 6.47318V5.92448H194.061V6.47318L193.216 6.67464C192.905 6.74793 192.739 6.76595 192.923 7.0407L195.785 11.4323L198.335 7.09558C198.518 6.78438 198.372 6.71108 197.895 6.61977L197.088 6.45556V5.92448H200.628V6.45515L200.096 6.60134C199.803 6.67464 199.638 6.74793 199.454 7.05873L196.207 12.2189V16.1163C196.207 16.3727 196.262 16.3907 196.684 16.4824L197.932 16.7387V17.2694H192.372V16.7387ZM186.415 13.1686L184.615 8.30553L182.908 13.1686H186.415ZM179.528 16.7431L180.355 16.5437C180.593 16.4892 180.722 16.3803 180.814 16.1263L184.781 5.72902H185.809L189.758 16.1448C189.831 16.3438 189.978 16.4892 190.216 16.5617L190.86 16.7431V17.2694H186.232V16.7431L187.205 16.5437C187.517 16.4712 187.609 16.3622 187.499 16.0719L186.709 13.9668H182.65L181.897 16.1448C181.805 16.4171 181.934 16.4892 182.155 16.5437L183.109 16.7431V17.2694H179.528V16.7431ZM173.256 16.6654C175.669 16.6654 177.279 14.7257 177.279 11.5236C177.279 8.94354 176.291 6.4916 173 6.4916H172.615C172.249 6.4916 171.701 6.60134 171.427 6.72951V16.4644C171.738 16.5741 172.323 16.6654 172.89 16.6654H173.256ZM167.806 16.7383L168.811 16.5188C169.25 16.4275 169.305 16.4095 169.305 16.1532V7.05873C169.305 6.82082 169.25 6.76635 168.829 6.67424L167.806 6.45475V5.92448H173.31C176.694 5.92448 179.528 7.88218 179.528 11.4504C179.528 14.6713 177.279 17.2694 173.749 17.2694H167.805V16.7383H167.806ZM164.535 11.4796C164.535 8.96597 163.596 6.37986 160.958 6.37986C158.358 6.37986 157.4 8.96597 157.4 11.4792C157.4 14.0108 158.34 16.796 160.959 16.796C163.578 16.796 164.535 14.0108 164.535 11.4792L164.535 11.4796ZM155.107 11.4796C155.107 8.38683 157.473 5.72902 160.958 5.72902C164.445 5.72902 166.829 8.36921 166.829 11.4792C166.829 14.608 164.463 17.4649 160.959 17.4649C157.473 17.4649 155.107 14.5904 155.107 11.4796ZM143.054 16.5076L144.743 16.1664C145.376 16.035 145.455 16.035 145.455 15.6674V1.90413H144.532C142.923 1.90413 141.709 2.24536 141.26 2.53453C140.759 3.26947 140.258 4.74056 139.994 5.87001H139.281L139.466 0.643311C139.994 0.85358 140.917 0.984548 141.893 0.984548H152.368C152.922 0.984548 154.135 0.85358 154.531 0.669744L154.715 5.89644H153.977C153.74 4.76699 153.159 3.26947 152.71 2.56017C151.735 1.98263 150.916 1.90413 149.703 1.90413H148.515V15.6674C148.515 16.035 148.595 16.035 149.202 16.1664L150.943 16.5076V17.2694H143.054V16.5076Z" fill="white" fill-opacity="0.58"/>
<path fill-rule="evenodd" clip-rule="evenodd" d="M130.49 13.3173H131.07C131.22 14.0782 131.444 15.1103 131.818 15.8169C132.249 16.3423 132.847 16.849 133.952 16.849C135.486 16.849 136.347 15.9254 136.347 14.6397C136.347 13.3717 135.562 12.8102 134.532 12.3937L133.353 11.9227C131.669 11.2526 130.677 10.329 130.677 8.73538C130.677 6.90624 132.492 5.72913 134.644 5.72913C135.749 5.72913 136.553 6.0187 137.152 6.34472L137.545 5.82005H137.938L138.05 9.36899H137.507C137.358 8.62684 137.021 7.73891 136.702 7.2683C136.235 6.81572 135.636 6.3267 134.625 6.3267C133.578 6.3267 132.698 7.01478 132.698 8.17386C132.698 9.15192 133.203 9.69541 134.232 10.166L135.935 10.945C137.077 11.4697 138.499 12.2667 138.499 14.1143C138.499 16.233 136.647 17.465 134.158 17.465C132.735 17.465 131.874 17.1934 131.294 16.9215L130.976 17.465H130.564C130.62 16.7945 130.527 14.8388 130.49 13.3173ZM113.733 7.05843C113.623 6.76606 113.441 6.71079 113.167 6.61947L112.71 6.45526V5.92458H117.239V6.45486L116.362 6.65632C115.997 6.74764 115.906 6.78408 115.979 7.02199L118.535 14.8316L120.982 8.22913L120.507 7.05843C120.398 6.76606 120.215 6.69277 119.978 6.61947L119.466 6.45526V5.92458H123.849V6.45486L123.027 6.65632C122.68 6.74764 122.644 6.8758 122.735 7.1133L125.492 14.7767L128.085 7.1133C128.195 6.80251 128.103 6.74764 127.61 6.6379L126.734 6.45486V5.92458H130.294V6.45486L129.71 6.6379C129.454 6.71079 129.29 6.72961 129.162 7.07686L125.2 17.465H124.36L121.475 9.54562L118.188 17.465H117.33L113.733 7.05843ZM102.942 16.7388L103.951 16.5194C104.391 16.428 104.446 16.41 104.446 16.1537V7.06364C104.446 6.80731 104.391 6.77127 103.969 6.67955L102.942 6.46007V5.93019H110.241C110.755 5.93019 111.434 5.82045 111.709 5.72913L112.039 9.36819H111.543C111.323 8.52712 110.993 7.61274 110.627 7.13734C110.223 6.88101 109.159 6.58863 108.004 6.58863H107.839C107.398 6.58863 106.959 6.62508 106.573 6.69837V10.9963H108.609C109.123 10.6855 109.563 9.86202 109.654 9.2949H110.021V13.4839H109.654C109.489 12.7341 109.141 12.0941 108.609 11.728H106.574V16.5017C106.977 16.5566 107.344 16.6295 108.114 16.6295H108.536C109.251 16.6295 110.388 16.4465 110.902 16.0628C111.286 15.6054 111.782 14.5264 112.02 13.7033H112.515L111.984 17.2699H102.942V16.7388ZM88.0832 3.75901V12.7826C88.0832 13.7818 88.1886 15.0451 88.2414 15.5445C88.2939 15.8865 88.3736 16.0183 88.7156 16.0708L90.8512 16.3868V17.1494H84.5771V16.3868L86.1592 16.1236C86.5012 16.0708 86.5805 15.9394 86.6334 15.5974C86.6598 15.0711 86.7912 13.8083 86.7912 12.8086V2.49619C86.7912 2.07565 86.6862 2.07565 86.027 1.91785L84.7354 1.62828V0.839268H89.3224L98.6812 12.519V5.25853C98.6812 4.15351 98.6019 3.1278 98.5226 2.54906C98.4966 2.23345 98.3908 1.97032 98.022 1.91785L95.8864 1.60184V0.838867L102.16 0.838867V1.60184L100.605 1.86498C100.289 1.91785 100.078 2.02278 100.078 2.46976C100.052 3.02246 99.946 4.02214 99.946 5.20606V17.465H99.0765L88.0832 3.75941V3.75901Z" fill="white" fill-opacity="0.58"/>
<path d="M74.8271 16.7388L75.8103 16.5189C76.2473 16.4276 76.3018 16.4096 76.3018 16.1528V7.05878C76.3018 6.80246 76.2473 6.78443 75.8288 6.69312L74.8087 6.45521V5.92453H80.1074V6.45521L78.8875 6.69312C78.487 6.76601 78.4141 6.82128 78.4141 7.05878V15.7691C78.4141 16.5922 79.2515 16.6286 79.8163 16.6286H80.0165C80.8724 16.6286 81.8737 16.3907 82.3475 16.0615C82.712 15.6041 83.0941 14.8904 83.3308 14.2864L83.6952 13.3352H84.1863L83.3492 17.2695H74.8267L74.8271 16.7388ZM70.1687 13.1686L68.3684 8.30558L66.661 13.1686H70.1687ZM63.2815 16.7432L64.1081 16.5437C64.3468 16.4893 64.4754 16.3803 64.5671 16.1264L68.5342 5.72908H69.5627L73.511 16.1448C73.5843 16.3439 73.7313 16.4893 73.97 16.5618L74.6132 16.7432V17.2695H69.9849V16.7432L70.9581 16.5437C71.2705 16.4712 71.3626 16.3623 71.2521 16.0719L70.4623 13.9668H66.4043L65.6513 16.1448C65.5592 16.4172 65.6878 16.4893 65.908 16.5437L66.8633 16.7432V17.2695H63.2819V16.7432H63.2815ZM52.5361 11.615C52.5361 8.15579 55.2484 5.72908 58.8955 5.72908C60.0133 5.72908 61.0398 5.89169 61.9378 6.2906L62.2862 5.83762H62.6707L62.8726 9.73141H62.3775C62.2129 8.95281 61.8276 7.66676 61.4612 7.17774C60.9845 6.74278 60.1603 6.30862 58.9499 6.30862C55.908 6.30862 54.8819 8.93439 54.8819 11.5061C54.8819 14.6757 56.4948 16.8313 58.694 16.8313C59.7389 16.8313 60.6549 16.4148 61.15 16.0703C61.5533 15.6722 62.1576 14.2051 62.3775 13.4261H62.891L62.2678 16.7945C61.5533 17.1205 60.1415 17.4649 58.6207 17.4649C54.6436 17.4649 52.5361 14.6942 52.5361 11.615ZM46.4796 16.7388L47.4772 16.5189C47.9126 16.4276 47.9671 16.4096 47.9671 16.1528V7.05878C47.9671 6.80246 47.9126 6.78443 47.4957 6.69312L46.4796 6.45521V5.92453H51.5593V6.45521L50.5612 6.69312C50.1439 6.78443 50.0718 6.80286 50.0718 7.05878V16.1528C50.0718 16.4092 50.1262 16.4276 50.5432 16.5189L51.5593 16.7388V17.2695H46.4796V16.7388ZM39.2303 16.6655C41.6442 16.6655 43.2534 14.7258 43.2534 11.5237C43.2534 8.9436 42.2658 6.49166 38.974 6.49166H38.5903C38.2242 6.49166 37.6759 6.6014 37.4015 6.72956V16.4644C37.7123 16.5742 38.2975 16.6655 38.8646 16.6655H39.2303ZM33.7805 16.7384L34.7862 16.5189C35.2251 16.4276 35.28 16.4096 35.28 16.1532V7.05878C35.28 6.82088 35.2251 6.76641 34.8046 6.67429L33.7805 6.45481V5.92453H39.2851C42.6683 5.92453 45.5027 7.88224 45.5027 11.4504C45.5027 14.6713 43.2534 17.2695 39.7241 17.2695H33.7805V16.7384ZM23.2302 16.7388L24.2391 16.5193C24.6788 16.428 24.7341 16.41 24.7341 16.1536V7.06359C24.7341 6.80726 24.6788 6.77122 24.2571 6.6795L23.2302 6.46002V5.93014H30.5295C31.043 5.93014 31.7215 5.8204 31.9966 5.72908L32.3266 9.36814H31.832C31.6117 8.52707 31.2817 7.61269 30.9152 7.13729C30.5115 6.88096 29.4481 6.58858 28.2923 6.58858H28.1273C27.6871 6.58858 27.2469 6.62503 26.862 6.69832V10.9962H28.8974C29.4113 10.6854 29.8511 9.86198 29.9428 9.29485H30.3097V13.4838H29.9428C29.7778 12.7341 29.4293 12.094 28.8974 11.728H26.8616V16.5017C27.265 16.5566 27.6318 16.6294 28.402 16.6294H28.8237C29.5391 16.6294 30.6765 16.4464 31.1896 16.0627C31.5749 15.6053 32.0699 14.5264 32.3082 13.7033H32.8036L32.2718 17.2699H23.2302V16.7388ZM0.371704 16.4304L2.15599 16.1673C2.54969 16.1144 2.65423 15.7988 2.7071 15.4295C2.73353 14.9028 2.83846 14.113 2.83846 12.9019V2.52618C2.83846 2.07841 2.7071 2.10444 2.05106 1.94664L0.686107 1.63063V0.84082H5.67249L11.3666 12.7701L17.2453 0.866854H22.1264V1.6046L20.6565 1.97307C20.1322 2.10444 20.0273 2.15731 20.0273 2.49975V15.5877C20.0273 15.9566 20.1058 15.9826 20.7094 16.1144L22.1528 16.4308V17.1942H15.0145V16.4304L16.248 16.1408C16.8516 16.009 16.9565 15.9566 16.9565 15.5881V4.05334L10.5271 17.1685H10.3693L4.17658 4.36934V12.8754C4.17658 14.0341 4.25508 14.8239 4.30795 15.377C4.30795 15.7195 4.38645 16.088 4.75372 16.1408L6.6169 16.4304V17.1942H0.371704V16.4304Z" fill="white" fill-opacity="0.58"/>
</svg>
