<svg width="198" height="16" viewBox="0 0 198 16" fill="none" xmlns="http://www.w3.org/2000/svg">
<path d="M7.24386 15.5256H0.173676L0.173676 0.475342H6.74964C9.90425 0.475342 11.9862 1.98029 11.9862 4.51561C11.9862 6.02169 11.017 7.23759 9.71911 7.73181C11.4496 7.97892 12.7694 9.52656 12.7694 11.2563C12.7694 13.9575 10.6252 15.5256 7.24386 15.5256ZM5.6369 3.83587H4.87441V6.64173H5.6369C6.99713 6.64173 7.69727 6.1664 7.69727 5.17532C7.69765 4.16535 6.95557 3.83587 5.6369 3.83587ZM6.40014 9.36144H4.87441V12.1665H6.40014C7.80118 12.1665 8.31694 11.63 8.31694 10.7043C8.31731 9.79294 7.63569 9.36144 6.40014 9.36144Z" fill="white" fill-opacity="0.58"/>
<path d="M26.7247 15.5256L25.9206 12.7832H21.5101L20.7072 15.5256H15.901L21.1179 0.475342L26.5603 0.475342L31.7761 15.5256H26.7247ZM23.7152 5.33855L22.5816 9.15476H24.8487L23.7152 5.33855Z" fill="white" fill-opacity="0.58"/>
<path d="M42.5257 15.7712C38.3603 15.7712 35.2276 13.6288 35.2276 8.59895V0.475342H40.2575V9.11698C40.2575 10.7417 41.1246 11.7728 42.5257 11.7728C43.9267 11.7728 44.7938 10.7417 44.7938 9.11698V0.475342H49.8244V8.59895C49.8244 13.6288 46.6887 15.7712 42.5257 15.7712Z" fill="white" fill-opacity="0.58"/>
<path d="M60.1391 15.7712C57.6877 15.7712 55.5653 14.8855 54.1624 13.6681L56.1623 10.4742C57.5622 11.5892 58.7792 12.1057 60.0786 12.1057C60.8003 12.1057 61.3153 11.7929 61.3153 11.2783C61.3153 10.5577 60.7391 10.2902 58.9035 9.73175C56.1619 8.88728 54.7798 7.71181 54.7798 5.23732C54.7798 1.98032 57.3363 0.228638 60.9855 0.228638C62.9442 0.228638 64.8606 0.949561 65.871 1.75323L63.8926 5.03139C62.8618 4.29007 61.9127 3.899 60.8003 3.899C59.8519 3.899 59.5009 4.31085 59.5009 4.74234C59.5009 5.21654 59.8523 5.50634 61.8315 6.08293C64.5512 6.86506 66.0353 7.91698 66.0353 10.7413C66.0353 13.7535 63.7686 15.7712 60.1391 15.7712Z" fill="white" fill-opacity="0.58"/>
<path d="M78.0813 15.7713C73.5052 15.7713 70.2271 12.5574 70.2271 8.06445C70.2271 3.56774 73.6299 0.229126 78.1637 0.229126C80.5758 0.229126 82.1847 1.26064 83.4826 2.37489L81.0088 5.73316C80.1647 4.9087 79.3595 4.33136 78.0605 4.33136C76.3901 4.33136 75.1526 5.77585 75.1526 7.94014C75.1526 10.1048 76.3496 11.6687 78.3507 11.6687C79.4627 11.6687 80.4942 11.1756 81.3795 10.3523L83.7935 13.6297C82.3486 14.886 80.7201 15.7713 78.0813 15.7713Z" fill="white" fill-opacity="0.58"/>
<path d="M97.3884 15.5256V10.2683H93.5963V15.5256H88.5673V0.475342H93.5963V6.02207H97.3884V0.475342H102.422V15.5256H97.3884Z" fill="white" fill-opacity="0.58"/>
<path d="M130.76 15.5254V0.47522H135.586V11.6911H140.513V15.5254H130.76Z" fill="white" fill-opacity="0.58"/>
<path d="M151.368 15.7712C146.645 15.7712 143.284 12.5146 143.284 8.02164C143.284 3.5272 146.686 0.228638 151.409 0.228638C156.128 0.228638 159.49 3.48677 159.49 7.97894C159.49 12.4741 156.087 15.7712 151.368 15.7712ZM151.368 4.2281C149.532 4.2281 148.213 5.81504 148.213 7.97932C148.213 10.1432 149.573 11.7732 151.409 11.7732C153.243 11.7732 154.561 10.1867 154.561 8.02202C154.561 5.8566 153.201 4.2281 151.368 4.2281Z" fill="white" fill-opacity="0.58"/>
<path d="M174.926 15.5256V8.18711L172.595 12.5572H170.306L167.914 8.18711V15.5256H163.173V0.475342H168.057L171.482 6.47812L174.654 0.475342H179.953V15.5256H174.926Z" fill="white" fill-opacity="0.58"/>
<path d="M191.787 15.5254H184.714V0.47522H191.292C194.448 0.47522 196.531 1.98017 196.531 4.51549C196.531 6.02157 195.561 7.23747 194.262 7.73168C195.993 7.97879 197.311 9.52644 197.311 11.2562C197.311 13.9574 195.169 15.5254 191.787 15.5254ZM190.179 3.83575H189.416V6.64161H190.179C191.541 6.64161 192.242 6.16628 192.242 5.1752C192.242 4.16523 191.499 3.83575 190.179 3.83575ZM190.944 9.36132H189.417V12.1664H190.944C192.345 12.1664 192.86 11.6299 192.86 10.7042C192.86 9.79282 192.179 9.36132 190.944 9.36132Z" fill="white" fill-opacity="0.58"/>
<path d="M119.021 5.55835H114.157V10.4454H119.021V5.55835Z" fill="white" fill-opacity="0.58"/>
<path d="M119.02 0.475342H114.157V5.55999H119.02V0.475342Z" fill="white" fill-opacity="0.58"/>
<path d="M119.02 10.4441H114.157V15.528H119.02V10.4441Z" fill="white" fill-opacity="0.58"/>
<path d="M114.158 5.55835H109.051V10.4446H114.158V5.55835Z" fill="white" fill-opacity="0.58"/>
<path d="M124.101 5.55835H119.019V10.4446H124.101V5.55835Z" fill="white" fill-opacity="0.58"/>
</svg>
