<svg width="9" height="9" viewBox="0 0 9 9" fill="none" xmlns="http://www.w3.org/2000/svg">
<path d="M6.59694 3.19388C6.92662 3.19388 7.19388 2.92662 7.19388 2.59694C7.19388 2.26726 6.92662 2 6.59694 2C6.26726 2 6 2.26726 6 2.59694C6 2.92662 6.26726 3.19388 6.59694 3.19388Z" fill="white"/>
<path d="M4.9102 3C4.5324 3 4.16308 3.11203 3.84895 3.32193C3.53482 3.53182 3.28999 3.83016 3.14541 4.1792C3.00083 4.52824 2.963 4.91232 3.0367 5.28287C3.11041 5.65341 3.29234 5.99377 3.55949 6.26092C3.82663 6.52807 4.167 6.71 4.53754 6.7837C4.90809 6.85741 5.29216 6.81958 5.64121 6.675C5.99025 6.53042 6.28858 6.28559 6.49848 5.97145C6.70838 5.65732 6.82041 5.28801 6.82041 4.9102C6.82041 4.40359 6.61915 3.91772 6.26092 3.55949C5.90269 3.20125 5.41682 3 4.9102 3ZM4.9102 5.8653C4.7213 5.8653 4.53664 5.80929 4.37958 5.70434C4.22251 5.59939 4.10009 5.45023 4.02781 5.2757C3.95552 5.10118 3.9366 4.90914 3.97345 4.72387C4.01031 4.5386 4.10127 4.36842 4.23485 4.23484C4.36842 4.10127 4.5386 4.01031 4.72387 3.97345C4.90914 3.9366 5.10118 3.95551 5.27571 4.0278C5.45023 4.10009 5.59939 4.22251 5.70434 4.37958C5.80929 4.53664 5.86531 4.7213 5.86531 4.9102C5.86531 5.16351 5.76468 5.40645 5.58556 5.58556C5.40645 5.76468 5.16351 5.8653 4.9102 5.8653Z" fill="white"/>
<path d="M7.20816 1H2.43265C1.64142 1 1 1.64142 1 2.43265V7.20816C1 7.99939 1.64142 8.64081 2.43265 8.64081H7.20816C7.99939 8.64081 8.64081 7.99939 8.64081 7.20816V2.43265C8.64081 1.64142 7.99939 1 7.20816 1Z" stroke="white" stroke-width="0.244898" stroke-miterlimit="10"/>
</svg>
