<svg width="146" height="45" viewBox="0 0 146 45" fill="none" xmlns="http://www.w3.org/2000/svg">
<path d="M57.2922 25.4238C57.2512 25.3828 57.2307 25.2957 57.2307 25.1624C57.2307 24.9675 57.2461 24.8701 57.2769 24.8701C57.3999 24.8701 57.5793 24.8342 57.8152 24.7625C58.0613 24.6907 58.2869 24.5984 58.4919 24.4856C58.7073 24.3625 58.8201 24.2292 58.8303 24.0857L58.8918 23.3474C59.0046 21.512 59.0713 19.9841 59.0918 18.7639C59.1123 17.5437 59.1379 16.7336 59.1687 16.3337C59.1687 16.2209 59.1533 16.1287 59.1226 16.0569C59.1021 15.9954 59.0149 15.9441 58.8611 15.9031C58.7073 15.8518 58.5432 15.8108 58.3689 15.78C58.2048 15.7493 58.0767 15.7339 57.9844 15.7339C57.9434 15.7339 57.9229 15.6262 57.9229 15.4109C57.9229 15.2981 57.9434 15.2212 57.9844 15.1802C58.0869 15.1802 58.2407 15.1904 58.4458 15.2109C58.6611 15.2212 58.8867 15.2366 59.1226 15.2571C59.3687 15.2673 59.5789 15.2725 59.7532 15.2725C59.8967 15.2725 60.0762 15.2673 60.2915 15.2571C60.5171 15.2366 60.7324 15.2212 60.9375 15.2109C61.1426 15.1904 61.2861 15.1802 61.3682 15.1802C61.4194 15.3442 61.5476 15.6672 61.7527 16.1492C61.968 16.6311 62.2603 17.272 62.6294 18.0718C62.9985 18.8818 63.3215 19.5996 63.5984 20.2251C63.8752 20.8403 64.1008 21.3735 64.2751 21.8247H64.3059C64.3264 21.8247 64.3367 21.8196 64.3367 21.8093C64.7263 20.8352 65.0801 19.9431 65.3979 19.1331C65.7158 18.323 65.9875 17.6001 66.2131 16.9644L66.7207 15.2417C66.813 15.252 66.9617 15.2622 67.1667 15.2725C67.3821 15.2725 67.6487 15.2725 67.9666 15.2725L69.9045 15.1802C69.9456 15.2314 69.9661 15.3135 69.9661 15.4263C69.9661 15.6416 69.9404 15.7493 69.8892 15.7493H69.8738C69.6174 15.7493 69.4021 15.8108 69.2278 15.9338C69.0637 16.0466 68.9919 16.2568 69.0125 16.5645L69.3201 23.0244C69.3508 23.6396 69.4277 24.1113 69.5508 24.4395C69.5815 24.501 69.6533 24.5625 69.7661 24.624C69.8892 24.6855 70.0173 24.7419 70.1506 24.7932C70.2839 24.8342 70.3813 24.8547 70.4429 24.8547C70.4839 24.8547 70.5044 24.9573 70.5044 25.1624C70.5044 25.2546 70.4941 25.3418 70.4736 25.4238C70.4019 25.4136 70.2429 25.3982 69.9968 25.3777C69.7507 25.3674 69.4893 25.3521 69.2124 25.3315C68.9355 25.311 68.7048 25.3008 68.5203 25.3008C68.3357 25.3008 68.0845 25.311 67.7666 25.3315C67.4487 25.3521 67.1462 25.3674 66.8591 25.3777C66.5823 25.3982 66.3926 25.4136 66.29 25.4238C66.2388 25.3726 66.2131 25.2905 66.2131 25.1777C66.2131 24.9624 66.2285 24.8547 66.2593 24.8547C66.3413 24.8547 66.449 24.8342 66.5823 24.7932C66.7156 24.7419 66.8438 24.6855 66.9668 24.624C67.1001 24.5522 67.1821 24.4856 67.2129 24.4241C67.2949 24.26 67.3359 24.1165 67.3359 23.9934C67.3359 23.8806 67.3308 23.7473 67.3206 23.5935C67.3206 23.4397 67.3154 23.2705 67.3052 23.0859L67.1821 19.1792C67.1411 18.4922 67.1001 18.1487 67.0591 18.1487C67.0386 18.1487 67.0129 18.1846 66.9822 18.2563L64.3213 24.8855C64.2803 24.988 64.1982 25.1008 64.0752 25.2239C63.9521 25.3367 63.8291 25.3931 63.7061 25.3931C63.6958 25.3931 63.6497 25.3828 63.5676 25.3623L60.1838 17.7642L59.9224 23.6858C59.9224 23.8293 59.9224 23.9473 59.9224 24.0396C59.9224 24.1318 59.9275 24.1985 59.9377 24.2395C59.9583 24.301 60.03 24.3677 60.1531 24.4395C60.2864 24.5112 60.4402 24.5779 60.6145 24.6394C60.7888 24.7009 60.9529 24.7522 61.1067 24.7932C61.2708 24.8342 61.3835 24.8547 61.4451 24.8547C61.4861 24.8547 61.5066 24.9573 61.5066 25.1624C61.5066 25.2546 61.4963 25.3418 61.4758 25.4238C60.8606 25.4238 60.394 25.4187 60.0762 25.4084C59.7686 25.3982 59.5481 25.3879 59.4148 25.3777C59.2815 25.3674 59.1841 25.3623 59.1226 25.3623C59.061 25.3521 58.9841 25.3469 58.8918 25.3469C58.7996 25.3469 58.6355 25.3521 58.3997 25.3623C58.1638 25.3726 57.7947 25.3931 57.2922 25.4238ZM71.4272 25.4238C71.3862 25.3828 71.3657 25.2957 71.3657 25.1624C71.3657 24.9573 71.3862 24.8547 71.4272 24.8547C71.5093 24.8547 71.6272 24.8394 71.781 24.8086C71.9348 24.7778 72.0784 24.7368 72.2117 24.6855C72.345 24.624 72.4219 24.5676 72.4424 24.5164C72.5039 24.2805 72.5347 23.8293 72.5347 23.1628V17.3489C72.5347 16.7747 72.5039 16.3748 72.4424 16.1492C72.4219 16.0876 72.3398 16.0261 72.1963 15.9646C72.063 15.8928 71.9194 15.8364 71.7656 15.7954C71.6118 15.7441 71.4939 15.7185 71.4119 15.7185C71.3708 15.7185 71.3503 15.6262 71.3503 15.4417C71.3503 15.2776 71.3657 15.1802 71.3965 15.1494C71.8066 15.1699 72.1963 15.1904 72.5654 15.2109C72.9448 15.2212 73.3088 15.2263 73.6575 15.2263C74.1086 15.2263 74.9033 15.2109 76.0415 15.1802C76.6157 15.1699 77.1182 15.1648 77.5488 15.1648C77.9795 15.1545 78.3384 15.1494 78.6255 15.1494C78.6357 15.2007 78.6768 15.416 78.7485 15.7954C78.8203 16.1748 78.928 16.7183 79.0715 17.4258C79.0203 17.4771 78.9023 17.5027 78.7178 17.5027C78.605 17.5027 78.5332 17.4668 78.5024 17.395C78.3794 17.1284 78.1948 16.8926 77.9487 16.6875C77.7129 16.4722 77.4514 16.303 77.1643 16.1799C76.8875 16.0466 76.6157 15.98 76.3491 15.98H75.7646C75.1084 15.98 74.7751 16.0466 74.7649 16.1799C74.7444 16.303 74.7239 16.467 74.7034 16.6721C74.6931 16.8669 74.688 17.1028 74.688 17.3796V19.7483C74.688 19.8098 74.9084 19.8406 75.3494 19.8406H76.1646C76.8105 19.8406 77.1592 19.8201 77.2104 19.7791C77.2617 19.7278 77.3027 19.5791 77.3335 19.333C77.354 19.1689 77.3848 19.0203 77.4258 18.887C77.436 18.8152 77.5129 18.7793 77.6565 18.7793C77.8308 18.7793 77.9436 18.8049 77.9949 18.8562V21.7632C77.9539 21.8042 77.8462 21.8247 77.6719 21.8247C77.5386 21.8247 77.4565 21.7837 77.4258 21.7017C77.3027 21.3018 77.2207 21.0557 77.1797 20.9634C77.1387 20.8916 77.1079 20.8608 77.0874 20.8711C77.0771 20.8711 77.0464 20.8506 76.9951 20.8096C76.8516 20.7275 76.4517 20.6865 75.7954 20.6865C75.0571 20.6865 74.688 20.7327 74.688 20.825V23.1936C74.688 23.6755 74.729 24.0396 74.811 24.2856C74.8521 24.4497 75.2007 24.5317 75.8569 24.5317H76.2568C76.8926 24.5317 77.4668 24.3984 77.9795 24.1318C78.1538 24.0396 78.3486 23.8652 78.564 23.6089C78.7896 23.3525 78.9639 23.0654 79.0869 22.7476C79.1074 22.686 79.1792 22.6553 79.3022 22.6553C79.5483 22.6553 79.7021 22.686 79.7637 22.7476C79.251 24.1626 78.9741 25.0444 78.9331 25.3931C78.6768 25.3931 78.3384 25.3879 77.918 25.3777C77.5078 25.3777 77.0156 25.3726 76.4414 25.3623C75.8774 25.3521 75.3647 25.3418 74.9033 25.3315C74.4419 25.311 74.0317 25.311 73.6729 25.3315L71.4272 25.4238ZM89.8074 25.4392C89.6946 25.4392 89.5356 25.3213 89.3306 25.0854L83.0706 17.3027V23.1936C83.0706 23.7371 83.1116 24.1011 83.1936 24.2856C83.2551 24.3984 83.3782 24.501 83.5627 24.5933C83.7473 24.6753 83.937 24.7368 84.1318 24.7778C84.3267 24.8188 84.4753 24.8394 84.5779 24.8394C84.5984 24.8394 84.6138 24.8855 84.624 24.9778C84.6343 25.0598 84.6394 25.147 84.6394 25.2393C84.6394 25.3315 84.6292 25.3931 84.6086 25.4238C84.1165 25.4238 83.696 25.4033 83.3474 25.3623C83.009 25.3213 82.7373 25.3008 82.5322 25.3008C82.2861 25.3008 82.0913 25.3059 81.9478 25.3162C81.8042 25.3264 81.6401 25.3418 81.4556 25.3623C81.2812 25.3828 81.0044 25.4033 80.625 25.4238C80.5942 25.3931 80.5789 25.3008 80.5789 25.147C80.5789 24.9521 80.5942 24.8547 80.625 24.8547C80.8608 24.8547 81.1069 24.8086 81.3633 24.7163C81.6299 24.6138 81.8196 24.4651 81.9324 24.2703C82.0349 24.1062 82.0862 23.7319 82.0862 23.1475V17.1028C82.0862 16.5696 82.0093 16.2056 81.8555 16.0107C81.8247 15.9595 81.7273 15.9185 81.5632 15.8877C81.4094 15.8467 81.2402 15.8159 81.0557 15.7954C80.8813 15.7646 80.7429 15.7493 80.6404 15.7493C80.6199 15.7493 80.5994 15.7083 80.5789 15.6262C80.5686 15.5442 80.5635 15.457 80.5635 15.3647C80.5737 15.2622 80.5891 15.2007 80.6096 15.1802L81.594 15.2417C81.8298 15.2622 82.04 15.2776 82.2246 15.2878C82.4194 15.2981 82.5835 15.3032 82.7168 15.3032C82.8911 15.3032 83.1013 15.293 83.3474 15.2725C83.6038 15.252 83.896 15.2212 84.2241 15.1802C84.4292 15.5903 84.7112 16.0415 85.0701 16.5337C85.4392 17.0259 85.8494 17.5488 86.3005 18.1025C86.762 18.646 87.2336 19.21 87.7156 19.7944C88.2078 20.3789 88.6743 20.9634 89.1152 21.5479C89.1255 21.5068 89.1306 21.4351 89.1306 21.3325C89.1409 21.23 89.146 21.0916 89.146 20.9172V17.3027C89.146 16.708 89.0793 16.3389 88.946 16.1953C88.8845 16.1133 88.7717 16.0415 88.6077 15.98C88.4539 15.9082 88.2898 15.8518 88.1155 15.8108C87.9514 15.7698 87.8284 15.7493 87.7463 15.7493C87.7258 15.7493 87.7053 15.7083 87.6848 15.6262C87.6746 15.5442 87.6694 15.457 87.6694 15.3647C87.6694 15.2622 87.6797 15.2007 87.7002 15.1802C88.1719 15.2212 88.5769 15.252 88.9153 15.2725C89.2537 15.293 89.5254 15.3032 89.7305 15.3032C89.9048 15.3032 90.1252 15.293 90.3918 15.2725C90.6584 15.252 90.9097 15.2314 91.1455 15.2109C91.3916 15.1904 91.5557 15.1802 91.6377 15.1802C91.6787 15.252 91.6992 15.3442 91.6992 15.457C91.6992 15.6519 91.6736 15.7493 91.6223 15.7493C91.0686 15.7493 90.6431 15.9185 90.3457 16.2568C90.2021 16.4312 90.1304 16.8054 90.1304 17.3796V23.2244C90.1304 23.4089 90.1355 23.6807 90.1458 24.0396C90.156 24.3984 90.1714 24.8445 90.1919 25.3777C90.1509 25.4187 90.0227 25.4392 89.8074 25.4392ZM94.9907 25.4238C94.9497 25.3828 94.9292 25.3008 94.9292 25.1777C94.9292 24.9624 94.9446 24.8547 94.9753 24.8547C95.0574 24.8547 95.1753 24.8342 95.3291 24.7932C95.4829 24.7522 95.6265 24.7009 95.7598 24.6394C95.8931 24.5779 95.97 24.5215 95.9905 24.4702C96.0315 24.3267 96.0571 24.1575 96.0674 23.9626C96.0879 23.7678 96.0981 23.5422 96.0981 23.2859V17.718C96.0981 16.9182 96.0571 16.4465 95.9751 16.303L95.8982 16.1646C95.8572 16.1235 95.7239 16.0928 95.4983 16.0723C95.2727 16.0415 95.0112 16.0261 94.7139 16.0261C94.2935 16.0261 93.95 16.144 93.6833 16.3799C93.4167 16.6055 93.2117 16.99 93.0681 17.5334C93.0476 17.5847 92.9963 17.6104 92.9143 17.6104C92.6887 17.6104 92.54 17.5745 92.4683 17.5027L92.7605 14.9956C92.9861 15.0469 93.186 15.0879 93.3604 15.1187C93.5347 15.1494 93.6885 15.1648 93.8218 15.1648C94.3447 15.1648 94.9036 15.1802 95.4983 15.2109C96.1033 15.2417 96.6672 15.2571 97.1902 15.2571C97.7131 15.2571 98.2771 15.2417 98.8821 15.2109C99.4871 15.1802 100.051 15.1648 100.574 15.1648C100.707 15.1648 100.861 15.1494 101.035 15.1187C101.21 15.0879 101.41 15.0469 101.635 14.9956L101.927 17.5181C101.856 17.5898 101.707 17.6257 101.481 17.6257C101.399 17.6257 101.348 17.6001 101.328 17.5488C101.071 16.5337 100.523 16.0261 99.6819 16.0261C98.8616 16.0261 98.4258 16.1184 98.3745 16.303C98.3335 16.4465 98.3027 16.6311 98.2822 16.8567C98.2617 17.0823 98.2515 17.354 98.2515 17.6719V23.2244C98.2515 23.4807 98.2617 23.7114 98.2822 23.9165C98.3027 24.1216 98.3335 24.3062 98.3745 24.4702C98.395 24.5112 98.4668 24.5625 98.5898 24.624C98.7231 24.6855 98.8616 24.7419 99.0051 24.7932C99.1589 24.8342 99.2666 24.8547 99.3281 24.8547C99.3691 24.8547 99.3896 24.9521 99.3896 25.147C99.3896 25.2495 99.3794 25.3418 99.3589 25.4238C99.3179 25.4238 99.2205 25.4187 99.0667 25.4084C98.9128 25.3982 98.7026 25.3828 98.436 25.3623C98.1694 25.3418 97.9336 25.3264 97.7285 25.3162C97.5234 25.3059 97.3542 25.3008 97.2209 25.3008C97.0364 25.3008 96.7852 25.311 96.4673 25.3315C96.1494 25.3521 95.8469 25.3674 95.5598 25.3777C95.283 25.3982 95.0933 25.4136 94.9907 25.4238ZM101.02 25.4238C100.979 25.3828 100.958 25.3059 100.958 25.1931C100.958 24.9778 100.969 24.8701 100.989 24.8701C101.071 24.8701 101.194 24.8445 101.358 24.7932C101.522 24.7419 101.681 24.6804 101.835 24.6086C101.999 24.5266 102.102 24.4497 102.143 24.3779C102.225 24.2549 102.312 24.1062 102.404 23.9319C102.497 23.7473 102.563 23.5986 102.604 23.4858L102.681 23.3013L106.08 15.4878C106.193 15.2212 106.383 15.0879 106.649 15.0879C106.803 15.0879 106.926 15.1545 107.019 15.2878L110.172 23.0859C110.264 23.3218 110.351 23.5474 110.433 23.7627C110.525 23.9678 110.607 24.1626 110.679 24.3472C110.72 24.4497 110.812 24.542 110.956 24.624C111.1 24.6958 111.253 24.7522 111.417 24.7932C111.592 24.8342 111.725 24.8547 111.817 24.8547C111.858 24.8547 111.879 24.9419 111.879 25.1162C111.879 25.2803 111.869 25.3828 111.848 25.4238L110.91 25.3623C110.613 25.3418 110.356 25.3264 110.141 25.3162C109.926 25.2957 109.751 25.2905 109.618 25.3008L107.295 25.4238C107.254 25.3828 107.234 25.2751 107.234 25.1008C107.234 24.9368 107.254 24.8547 107.295 24.8547C107.521 24.8547 107.752 24.8086 107.988 24.7163C108.223 24.6138 108.341 24.4805 108.341 24.3164C108.341 24.3062 108.311 24.2139 108.249 24.0396C108.198 23.8652 108.1 23.614 107.957 23.2859L107.495 22.1631C107.454 22.1221 107.418 22.1016 107.388 22.1016C107.285 22.0913 107.111 22.0862 106.865 22.0862C106.619 22.0862 106.301 22.0862 105.911 22.0862C105.573 22.0862 105.27 22.0862 105.004 22.0862C104.747 22.0862 104.532 22.0913 104.358 22.1016C104.317 22.1016 104.281 22.1272 104.25 22.1785L103.742 23.3474C103.568 23.7576 103.466 24.0549 103.435 24.2395C103.414 24.4241 103.507 24.5676 103.712 24.6702C103.896 24.7625 104.055 24.8188 104.188 24.8394C104.332 24.8496 104.455 24.8547 104.558 24.8547C104.588 24.865 104.604 24.947 104.604 25.1008C104.604 25.2341 104.594 25.3418 104.573 25.4238C104.112 25.3931 103.773 25.3674 103.558 25.3469C103.353 25.3264 103.199 25.3162 103.096 25.3162C102.994 25.3059 102.881 25.3059 102.758 25.3162C102.645 25.3264 102.461 25.3418 102.204 25.3623C101.948 25.3726 101.553 25.3931 101.02 25.4238ZM105.911 21.1633C106.116 21.1633 106.306 21.1633 106.48 21.1633C106.665 21.1531 106.839 21.1428 107.003 21.1326L107.049 21.0557L105.942 18.3025L104.742 21.0557C104.742 21.0967 104.752 21.1172 104.773 21.1172C105.081 21.1479 105.46 21.1633 105.911 21.1633ZM112.325 25.4238C112.284 25.3828 112.263 25.2957 112.263 25.1624C112.263 24.9573 112.284 24.8547 112.325 24.8547C112.407 24.8547 112.525 24.8394 112.679 24.8086C112.833 24.7778 112.976 24.7368 113.109 24.6855C113.243 24.624 113.32 24.5676 113.34 24.5164C113.402 24.2805 113.432 23.8293 113.432 23.1628V17.2874C113.432 16.6619 113.391 16.2773 113.309 16.1338C113.279 16.0723 113.197 16.0159 113.063 15.9646C112.94 15.9031 112.812 15.8518 112.679 15.8108C112.545 15.7698 112.438 15.7493 112.356 15.7493C112.315 15.7493 112.294 15.6621 112.294 15.4878C112.294 15.3032 112.304 15.2007 112.325 15.1802L114.555 15.2725C114.658 15.2827 114.888 15.2776 115.247 15.2571C115.606 15.2366 116.093 15.2109 116.708 15.1802C116.739 15.2725 116.755 15.3647 116.755 15.457C116.755 15.6519 116.734 15.7493 116.693 15.7493C116.632 15.7493 116.524 15.7698 116.37 15.8108C116.216 15.8518 116.068 15.9031 115.924 15.9646C115.791 16.0159 115.714 16.0671 115.693 16.1184C115.652 16.2517 115.622 16.426 115.601 16.6414C115.591 16.8464 115.586 17.0823 115.586 17.3489V23.1782C115.586 23.6704 115.627 24.0396 115.709 24.2856C115.75 24.4497 116.098 24.5317 116.755 24.5317H117.155C117.79 24.5317 118.365 24.3984 118.877 24.1318C119.052 24.0396 119.246 23.8652 119.462 23.6089C119.687 23.3525 119.862 23.0654 119.985 22.7476C120.005 22.686 120.077 22.6553 120.2 22.6553C120.446 22.6553 120.6 22.686 120.661 22.7476C120.149 24.1626 119.872 25.0444 119.831 25.3931C119.544 25.3931 119.169 25.3879 118.708 25.3777C118.257 25.3777 117.719 25.3726 117.093 25.3623C116.468 25.3521 115.945 25.3418 115.524 25.3315C115.114 25.3213 114.796 25.3213 114.571 25.3315L112.325 25.4238ZM124.737 25.4546C124.173 25.4546 123.656 25.3059 123.184 25.0085C122.712 24.7112 122.333 24.3164 122.046 23.8242C121.769 23.3218 121.63 22.7629 121.63 22.1477C121.63 21.512 121.743 20.9326 121.969 20.4097C122.205 19.8765 122.543 19.4509 122.984 19.1331C123.435 18.8152 123.979 18.6562 124.614 18.6562C125.742 18.6562 126.521 18.9177 126.952 19.4407C126.952 20.1277 126.762 20.4712 126.383 20.4712C126.209 20.4712 126.075 20.4353 125.983 20.3635C125.891 20.2815 125.773 20.1379 125.629 19.9329C125.312 19.4612 124.932 19.2253 124.491 19.2253C124.071 19.2253 123.686 19.4253 123.338 19.8252C122.999 20.2251 122.83 20.8198 122.83 21.6094C122.83 22.4297 123.03 23.1116 123.43 23.655C123.84 24.1985 124.404 24.4702 125.122 24.4702C125.552 24.4702 125.911 24.4087 126.198 24.2856C126.496 24.1523 126.711 24.0344 126.844 23.9319L126.952 23.855C127.014 23.855 127.044 23.9216 127.044 24.0549C127.044 24.1267 127.014 24.219 126.952 24.3318C126.747 24.6189 126.445 24.8804 126.045 25.1162C125.645 25.3418 125.209 25.4546 124.737 25.4546ZM129.521 25.47C129.049 25.47 128.659 25.3469 128.352 25.1008C128.044 24.8445 127.89 24.4651 127.89 23.9626C127.89 23.3474 128.29 22.8347 129.09 22.4246C129.439 22.2502 129.782 22.1118 130.121 22.0093C130.469 21.9067 130.818 21.7888 131.167 21.6555C131.259 21.6248 131.305 21.5479 131.305 21.4248V20.2712C131.305 19.9431 131.202 19.6919 130.997 19.5176C130.792 19.333 130.546 19.2407 130.259 19.2407C129.951 19.2407 129.695 19.3484 129.49 19.5637C129.285 19.7688 129.182 20.0405 129.182 20.3789C129.182 20.7378 128.972 20.9172 128.552 20.9172C128.254 20.9172 128.054 20.8198 127.952 20.625C127.952 20.4097 128.039 20.1892 128.213 19.9636C128.398 19.7278 128.634 19.5125 128.921 19.3176C129.208 19.1228 129.521 18.9639 129.859 18.8408C130.208 18.7178 130.551 18.6562 130.89 18.6562C131.454 18.6562 131.859 18.7947 132.105 19.0715C132.351 19.3381 132.474 19.7739 132.474 20.3789V23.9319C132.474 24.1472 132.53 24.3267 132.643 24.4702C132.756 24.6138 132.91 24.6855 133.104 24.6855C133.238 24.6855 133.417 24.6138 133.643 24.4702C133.684 24.4702 133.704 24.5112 133.704 24.5933C133.704 24.7266 133.679 24.8342 133.627 24.9163C133.207 25.2751 132.848 25.4546 132.551 25.4546C132.315 25.4546 132.089 25.3572 131.874 25.1624C131.659 24.9675 131.51 24.7625 131.428 24.5471C131.377 24.5881 131.31 24.6445 131.228 24.7163C131.156 24.7778 131.095 24.8291 131.043 24.8701C130.828 25.0342 130.592 25.1777 130.336 25.3008C130.09 25.4136 129.818 25.47 129.521 25.47ZM130.105 24.5933C130.392 24.5933 130.664 24.5112 130.92 24.3472C131.177 24.1831 131.305 24.0088 131.305 23.8242V22.24C131.038 22.3425 130.782 22.4348 130.536 22.5168C130.3 22.5989 130.11 22.6655 129.967 22.7168C129.782 22.7886 129.603 22.9167 129.428 23.1013C129.264 23.2859 129.182 23.4961 129.182 23.7319C129.182 24.0396 129.275 24.26 129.459 24.3933C129.654 24.5266 129.869 24.5933 130.105 24.5933ZM134.366 25.4084C134.325 25.3674 134.304 25.2803 134.304 25.147C134.304 25.0239 134.325 24.9624 134.366 24.9624C134.448 24.9624 134.561 24.947 134.704 24.9163C134.848 24.8855 134.981 24.8445 135.104 24.7932C135.227 24.7419 135.294 24.6958 135.304 24.6548C135.345 24.5112 135.371 24.3472 135.381 24.1626C135.401 23.978 135.412 23.7832 135.412 23.5781V20.6711C135.412 20.2815 135.34 20.0046 135.196 19.8406C135.094 19.7175 134.971 19.6355 134.827 19.5945C134.694 19.5535 134.571 19.533 134.458 19.533C134.355 19.5227 134.304 19.5073 134.304 19.4868C134.304 19.2407 134.335 19.1125 134.396 19.1023C135.514 18.928 136.16 18.8152 136.334 18.7639L136.596 18.687C136.637 18.6768 136.663 18.7178 136.673 18.8101C136.683 18.9023 136.683 18.969 136.673 19.01L136.581 19.7791C136.765 19.5022 137.016 19.2458 137.334 19.01C137.662 18.7639 137.985 18.6409 138.303 18.6409C138.898 18.6409 139.298 18.7896 139.503 19.0869C139.503 19.4458 139.447 19.7073 139.334 19.8713C139.221 20.0354 139.083 20.1174 138.918 20.1174C138.734 20.1174 138.565 20.0303 138.411 19.856C138.257 19.6816 138.047 19.5945 137.78 19.5945C137.575 19.5945 137.38 19.6663 137.196 19.8098C137.011 19.9431 136.863 20.1174 136.75 20.3328C136.647 20.5378 136.596 20.7532 136.596 20.9788V23.2859C136.596 23.5833 136.606 23.8447 136.627 24.0703C136.647 24.2959 136.678 24.4907 136.719 24.6548C136.74 24.6958 136.811 24.7419 136.934 24.7932C137.057 24.8445 137.191 24.8855 137.334 24.9163C137.488 24.947 137.596 24.9624 137.657 24.9624C137.688 24.9624 137.708 25.0239 137.719 25.147C137.729 25.27 137.724 25.3572 137.703 25.4084L136.042 25.3315L134.366 25.4084ZM143.317 25.4546C142.753 25.4546 142.236 25.3059 141.764 25.0085C141.292 24.7112 140.913 24.3164 140.626 23.8242C140.349 23.3218 140.21 22.7629 140.21 22.1477C140.21 21.4299 140.344 20.8096 140.61 20.2866C140.877 19.7637 141.241 19.3638 141.702 19.0869C142.164 18.7998 142.682 18.6562 143.256 18.6562C143.728 18.6562 144.143 18.7485 144.502 18.9331C144.861 19.1074 145.137 19.333 145.332 19.6099C145.517 19.897 145.65 20.1892 145.732 20.4866C145.824 20.7737 145.871 21.0608 145.871 21.3479C145.871 21.553 145.84 21.6812 145.778 21.7324C145.717 21.7734 145.599 21.7939 145.425 21.7939H141.549C141.467 21.7939 141.426 21.8196 141.426 21.8708C141.426 22.3015 141.513 22.7168 141.687 23.1167C141.861 23.5063 142.118 23.8293 142.456 24.0857C142.794 24.342 143.21 24.4702 143.702 24.4702C144.133 24.4702 144.491 24.4087 144.779 24.2856C145.076 24.1523 145.291 24.0344 145.425 23.9319L145.532 23.855C145.594 23.855 145.625 23.9216 145.625 24.0549C145.625 24.1267 145.594 24.219 145.532 24.3318C145.327 24.6189 145.025 24.8804 144.625 25.1162C144.225 25.3418 143.789 25.4546 143.317 25.4546ZM141.549 21.1479H144.548C144.599 21.1479 144.625 21.0967 144.625 20.9941C144.625 20.7686 144.563 20.5225 144.44 20.2559C144.327 19.979 144.153 19.738 143.917 19.533C143.681 19.3279 143.384 19.2253 143.025 19.2253C142.697 19.2253 142.415 19.3381 142.179 19.5637C141.943 19.7791 141.764 20.0303 141.641 20.3174C141.518 20.5942 141.456 20.8352 141.456 21.0403C141.456 21.1121 141.487 21.1479 141.549 21.1479Z" fill="black"/>
<rect width="45.9351" height="44.7248" rx="3.40572" fill="black"/>
<path d="M19.2717 5.12304C16.6167 5.26868 13.6268 6.1048 11.6898 7.2457C10.6187 7.87683 9.52053 8.94491 8.60635 10.2476C7.19738 12.2516 6.65431 13.9454 6.64827 16.3297C6.64224 18.2744 6.97713 19.6769 8.00294 21.9938C8.31068 22.6896 8.41929 22.9243 9.14037 24.4347C10.6791 27.6497 11.2614 28.9336 11.4846 29.5863C11.723 30.2875 11.8286 30.6678 11.7954 30.6975C11.7743 30.7164 11.7833 30.7407 11.8165 30.7703C11.8497 30.8 11.91 30.9888 11.9794 31.2882C12.3717 32.9523 12.5436 34.5706 12.5044 36.2887C12.4803 37.3406 12.4048 38.2037 12.2449 39.2421C12.2148 39.4417 12.1937 39.6089 12.1967 39.6143C12.2118 39.6278 28.2746 39.5658 28.2897 39.5496C28.2988 39.5442 28.3229 39.2016 28.344 38.789C28.4044 37.5806 28.4345 37.4512 28.7453 37.0331C29.2974 36.2995 29.7047 36.1431 31.6598 35.9381C35.4794 35.5308 36.7134 35.1047 37.1448 34.0393C37.3802 33.4567 37.3862 32.5478 37.169 30.7541L37.1448 30.5599L37.3832 30.2552C37.6638 29.9018 37.7814 29.6834 37.8237 29.4568C37.8599 29.2626 37.8237 29.1035 37.7211 28.9821C37.6245 28.8688 37.6276 28.8284 37.7271 28.7205C37.7935 28.6504 37.8116 28.6018 37.8207 28.4589C37.8357 28.2485 37.8116 28.1325 37.6004 27.4825C37.3651 26.757 37.2836 26.3901 37.2384 25.8507C37.2172 25.581 37.2685 25.1629 37.3409 25.0119C37.4315 24.8339 37.6909 24.6828 38.231 24.4967C38.8404 24.2864 39.0878 24.1353 39.2176 23.9034C39.2779 23.7928 39.287 23.7334 39.287 23.4907C39.287 23.1724 39.2628 23.1023 39.0577 22.8326C38.8072 22.5035 38.0288 21.6836 36.8974 20.5616C35.8022 19.4719 35.4794 19.1051 35.3497 18.7976C35.2773 18.6277 35.232 17.7403 35.232 16.4835C35.229 15.2239 35.1868 14.0075 35.1264 13.6137C35.0238 12.9232 34.6195 11.812 34.1428 10.9246C33.642 9.99141 33.1321 9.32521 32.396 8.64553C31.2103 7.55048 29.6655 6.72245 27.448 5.99152C25.9575 5.50064 24.7115 5.26329 22.9978 5.15001C22.4366 5.11225 19.8268 5.09337 19.2717 5.12304Z" fill="url(#paint0_linear_22_894)"/>
<defs>
<linearGradient id="paint0_linear_22_894" x1="22.9676" y1="39.6162" x2="22.9676" y2="5.10845" gradientUnits="userSpaceOnUse">
<stop stop-color="#DDD3EF" stop-opacity="0.55"/>
<stop offset="0.541667" stop-color="#FDD9FF"/>
<stop offset="1" stop-color="#C1E7FF"/>
</linearGradient>
</defs>
</svg>
