<svg width="193" height="75" viewBox="0 0 193 75" fill="none" xmlns="http://www.w3.org/2000/svg">
<mask id="mask0_122_307" style="mask-type:luminance" maskUnits="userSpaceOnUse" x="27" y="0" width="46" height="40">
<path d="M27.8717 0.488297H72.0648V39.3597H27.8717V0.488297Z" fill="white"/>
</mask>
<g mask="url(#mask0_122_307)">
<path d="M54.8706 0.641581C51.1277 1.21914 42.0829 4.11276 36.4133 7.33952C29.9001 11.0464 27.8715 14.6543 28.8432 19.2013C29.6876 23.1366 31.5014 26.9969 34.5797 31.5315C37.9525 36.4917 43.0356 39.3599 49.4055 36.7441C55.7763 34.1204 64.88 27.992 68.1931 24.2662C72.0649 19.9047 72.0649 15.9047 70.6292 11.8894C69.4943 8.71141 67.7657 6.40408 65.3758 3.99783C63.3527 1.96037 60.342 0.488832 56.8371 0.488832C56.1973 0.488832 55.5407 0.538289 54.8706 0.641581Z" fill="white" fill-opacity="0.58"/>
</g>
<mask id="mask1_122_307" style="mask-type:luminance" maskUnits="userSpaceOnUse" x="0" y="0" width="194" height="75">
<path d="M0.783325 74.5022H193.009V0.488853H0.783325L0.783325 74.5022Z" fill="white"/>
</mask>
<g mask="url(#mask1_122_307)">
<path d="M44.3353 40.1885C45.097 39.1556 46.1141 38.8043 47.81 39.2174C49.2895 39.5709 51.3531 40.6344 51.868 41.0948C52.6225 41.7808 52.8732 42.4718 52.7443 43.5455C52.64 44.4249 52.3957 45.1523 51.9412 45.9685C51.2743 47.1687 50.3424 47.9012 49.1144 47.9194C47.8912 47.9463 45.3222 47.68 43.8594 47.0887C42.4022 46.4936 42.2224 45.0752 42.7182 43.5389C43.1686 42.1394 43.6708 41.0876 44.3353 40.1885Z" fill="white" fill-opacity="0.58"/>
<path d="M83.6789 29.6374C77.1768 29.6374 74.2155 34.4004 74.2155 38.8245C74.2155 43.2428 77.1768 48.0138 83.6789 48.0138C90.1833 48.0138 93.1447 43.2428 93.1447 38.8245C93.1447 34.4004 90.1833 29.6374 83.6789 29.6374ZM83.6789 47.1453C77.7896 47.1453 75.6973 42.6586 75.6973 38.8245C75.6973 34.9867 77.7896 30.5045 83.6789 30.5045C89.5713 30.5045 91.6612 34.9867 91.6612 38.8245C91.6612 42.6586 89.5713 47.1453 83.6789 47.1453Z" fill="white" fill-opacity="0.58"/>
<path d="M101.761 34.5855H99.6505V31.0314C99.6505 30.2189 99.1976 30.2189 99.0122 30.2189C98.818 30.2189 98.3692 30.2189 98.3692 31.0314V34.5855H96.2554C95.9387 34.5855 95.7787 34.7041 95.7787 34.9397C95.7787 35.1747 95.9387 35.2947 96.2554 35.2947H98.3692V47.235C98.3692 48.0134 98.818 48.0134 99.0122 48.0134C99.1976 48.0134 99.6505 48.0134 99.6505 47.235V35.2947H101.761C102.076 35.2947 102.239 35.1747 102.239 34.9397C102.239 34.7041 102.076 34.5855 101.761 34.5855Z" fill="white" fill-opacity="0.58"/>
<path d="M112.481 42.0026C111.664 41.732 109.287 40.9508 108.371 40.6489C106.425 40.0059 105.629 39.0471 105.629 37.7065C105.629 35.6829 108.429 34.4274 111.021 34.4274C112.641 34.4274 114.382 34.722 115.891 35.5127C116.607 35.8808 116.027 36.6336 115.376 36.3179C114.232 35.7695 113.393 35.1359 111.112 35.1359C109.124 35.1359 107.059 35.9746 107.059 37.572C107.059 38.5016 107.859 39.197 109.087 39.5825C109.473 39.7054 112.224 40.5958 112.694 40.7471C115.269 41.5807 116.763 42.5016 116.763 44.3608C116.763 46.546 114.372 48.0139 110.812 48.0139C107.819 48.0139 105.843 46.7998 104.999 46.0266C104.326 45.4127 105.157 44.7609 105.726 45.2759C106.333 45.8236 107.91 47.3046 110.913 47.3046C113.4 47.3046 115.326 46.0702 115.326 44.4408C115.326 42.8944 113.833 42.4485 112.481 42.0026Z" fill="white" fill-opacity="0.58"/>
<path d="M132.891 34.4273C132.693 34.4273 132.241 34.4273 132.241 35.2042V43.1707C132.241 44.256 132.146 45.1507 131.614 45.8279C130.856 46.7801 129.383 47.3046 127.385 47.3046C125.414 47.3046 123.97 46.775 123.203 45.8047C122.669 45.1311 122.512 44.2415 122.512 43.1707V35.2042C122.512 34.4273 122.067 34.4273 121.871 34.4273C121.677 34.4273 121.23 34.4273 121.23 35.2042V43.6356C121.23 46.2971 123.645 48.0138 127.385 48.0138C131.111 48.0138 133.528 46.2971 133.528 43.6356V35.2042C133.528 34.4273 133.082 34.4273 132.891 34.4273Z" fill="white" fill-opacity="0.58"/>
<path d="M148.804 47.7564C149.472 48.2125 149.734 47.9194 149.849 47.7855C149.97 47.6502 150.248 47.3331 149.594 46.8559L141.235 40.7195C141.235 40.7195 149.401 35.1454 149.395 35.1483C149.835 34.8501 149.692 34.621 149.619 34.5308C149.54 34.4413 149.344 34.2558 148.905 34.5519L139.742 40.7093V28.9792C139.742 28.2016 139.29 28.2016 139.096 28.2016C138.903 28.2016 138.457 28.2016 138.457 28.9792V47.2349C138.457 48.0139 138.903 48.0139 139.096 48.0139C139.29 48.0139 139.742 48.0139 139.742 47.2349V41.0978C139.742 41.0978 148.806 47.7564 148.804 47.7564Z" fill="white" fill-opacity="0.58"/>
<path d="M165.279 34.4273C165.087 34.4273 164.637 34.455 164.637 35.2042L164.636 37.9844C163.949 36.1877 162.091 34.4273 159.045 34.4273C154.251 34.4273 152.068 37.9473 152.068 41.214C152.068 44.5063 153.916 48.0138 159.111 48.0138C162.308 48.0138 163.977 46.1909 164.653 44.467V47.2347C164.653 48.0138 165.087 48.0138 165.279 48.0138C165.47 48.0138 165.923 48.0138 165.923 47.2347V35.2042C165.927 34.4637 165.47 34.4273 165.279 34.4273ZM159.111 47.3046C155.004 47.3046 153.441 44.0254 153.441 41.214C153.441 38.1924 155.271 35.1358 159.111 35.1358C163.187 35.1358 164.637 38.4128 164.637 41.214C164.637 44.0254 163.187 47.3046 159.111 47.3046Z" fill="white" fill-opacity="0.58"/>
</g>
</svg>
