<svg width="12" height="11" viewBox="0 0 12 11" fill="none" xmlns="http://www.w3.org/2000/svg">
<g clip-path="url(#clip0_22_983)">
<path d="M9.19648 10.1974C8.85091 10.4436 6.63361 8.88331 6.20895 8.87988C5.78429 8.87648 3.54203 10.4009 3.2005 10.1492C2.85897 9.89752 3.66189 7.31259 3.53394 6.90882C3.40598 6.50505 1.25916 4.84963 1.39363 4.44796C1.52814 4.04629 4.24167 4.00899 4.58724 3.76285C4.9328 3.51674 5.84827 0.96926 6.27296 0.97266C6.69759 0.976089 7.5717 3.53796 7.91324 3.78963C8.25477 4.04127 10.9674 4.12227 11.0954 4.52604C11.2233 4.9298 9.05002 6.55046 8.91551 6.95213C8.78103 7.3538 9.54204 9.9513 9.19648 10.1974Z" fill="#F8B84E"/>
</g>
<defs>
<clipPath id="clip0_22_983">
<rect width="10.3706" height="10.3706" fill="white" transform="translate(0.739868 0.50354)"/>
</clipPath>
</defs>
</svg>
