<svg width="11" height="9" viewBox="0 0 11 9" fill="none" xmlns="http://www.w3.org/2000/svg">
<path d="M10.5751 1.8726C10.2147 2.03253 9.82758 2.14064 9.42058 2.18923C9.83596 1.9405 10.1542 1.54634 10.3044 1.07723C9.90985 1.31159 9.47802 1.47657 9.02769 1.56502C8.66122 1.17439 8.13864 0.930511 7.56048 0.930511C6.45073 0.930511 5.55072 1.83016 5.55072 2.94055C5.55072 3.09788 5.56844 3.25137 5.60251 3.39874C3.93193 3.31478 2.45086 2.51456 1.4595 1.29862C1.2864 1.59559 1.18731 1.94086 1.18731 2.30926C1.18731 3.00653 1.54222 3.62174 2.08148 3.98211C1.76225 3.97222 1.45001 3.88605 1.17089 3.73081V3.75621C1.17089 4.73019 1.86365 5.54232 2.78324 5.72702C2.61432 5.77331 2.43703 5.79749 2.25363 5.79749C2.12395 5.79749 1.99815 5.78521 1.87525 5.7621C2.13104 6.5604 2.87338 7.14149 3.75271 7.15791C3.06477 7.69718 2.19795 8.01864 1.25648 8.01864C1.09433 8.01864 0.934064 8.00896 0.776733 7.99C1.66641 8.56048 2.72277 8.89351 3.85794 8.89351C7.555 8.89351 9.57695 5.83065 9.57695 3.1745C9.57695 3.0873 9.57503 3.00074 9.57083 2.9145C9.96477 2.62956 10.3048 2.27676 10.5751 1.8726Z" fill="white"/>
</svg>
