<svg width="19" height="19" viewBox="0 0 19 19" fill="none" xmlns="http://www.w3.org/2000/svg">
<path d="M9.59518 17.658C14.2488 17.658 18.0213 13.8855 18.0213 9.23184C18.0213 4.57822 14.2488 0.805725 9.59518 0.805725C4.94157 0.805725 1.16907 4.57822 1.16907 9.23184C1.16907 13.8855 4.94157 17.658 9.59518 17.658Z" fill="black"/>
<path d="M9.59518 12.6023L12.9656 9.23184L9.59518 5.86139" fill="black"/>
<path d="M9.59518 12.6023L12.9656 9.23184M12.9656 9.23184L9.59518 5.86139M12.9656 9.23184H6.22474M18.0213 9.23184C18.0213 13.8855 14.2488 17.658 9.59518 17.658C4.94157 17.658 1.16907 13.8855 1.16907 9.23184C1.16907 4.57822 4.94157 0.805725 9.59518 0.805725C14.2488 0.805725 18.0213 4.57822 18.0213 9.23184Z" stroke="#EDEDED" stroke-width="1.62041" stroke-linecap="round" stroke-linejoin="round"/>
</svg>
